<svg height="511pt" viewBox="0 -23 511.99981 511" width="511pt" xmlns="http://www.w3.org/2000/svg"><path d="m508.765625 186.078125-68.765625-51.023437v-126.554688c0-4.417969-3.582031-8-8-8h-95c-4.417969 0-8 3.582031-8 8v44.203125l-68.234375-50.625c-2.828125-2.1015625-6.703125-2.1015625-9.53125 0l-248 184c-2.773437 2.054687-3.914063 5.65625-2.832031 8.933594 1.085937 3.277343 4.148437 5.488281 7.597656 5.488281h48v256c0 4.417969 3.582031 8 8 8h384c4.417969 0 8-3.582031 8-8v-256h48c3.449219 0 6.511719-2.210938 7.59375-5.488281 1.085938-3.277344-.054688-6.878907-2.828125-8.933594zm0 0" fill="#43bee7"/><path d="m96 456.5v-280l195.097656-151.917969-30.328125-22.507812c-2.832031-2.0976565-6.703125-2.0976565-9.535156 0l-248 184c-2.769531 2.058593-3.910156 5.660156-2.828125 8.9375 1.082031 3.277343 4.144531 5.488281 7.59375 5.488281h48v256c0 4.417969 3.582031 8 8 8h40c-4.417969 0-8-3.582031-8-8zm0 0" fill="#14ade0"/><g fill="#fff"><path d="m272 392.5c0 8.835938-7.164062 16-16 16s-16-7.164062-16-16 7.164062-16 16-16 16 7.164062 16 16zm0 0"/><path d="m256 272.5c-26.710938 0-51.824219 10.402344-70.710938 29.289062-4.683593 4.6875-4.683593 12.285157 0 16.972657 4.6875 4.6875 12.285157 4.6875 16.972657 0 14.351562-14.355469 33.4375-22.261719 53.738281-22.261719s39.386719 7.90625 53.742188 22.261719c4.621093 4.625 12.34375 4.625 16.96875 0 4.6875-4.6875 4.6875-12.285157 0-16.972657-18.886719-18.886718-44-29.289062-70.710938-29.289062zm0 0"/><path d="m366.308594 262.191406c-29.464844-29.464844-68.640625-45.691406-110.308594-45.691406-41.671875 0-80.84375 16.226562-110.308594 45.691406-4.6875 4.6875-4.6875 12.285156 0 16.972656s12.285156 4.683594 16.96875 0c24.933594-24.933593 58.082032-38.664062 93.339844-38.664062s68.40625 13.730469 93.335938 38.664062c4.625 4.625 12.347656 4.621094 16.972656 0 4.6875-4.6875 4.6875-12.285156 0-16.972656zm0 0"/><path d="m256 324.785156c-13.890625 0-26.949219 5.410156-36.769531 15.230469-4.6875 4.6875-4.6875 12.285156 0 16.96875 4.6875 4.6875 12.285156 4.6875 16.96875 0 5.289062-5.285156 12.320312-8.199219 19.800781-8.199219s14.511719 2.914063 19.796875 8.199219c4.625 4.625 12.347656 4.625 16.972656 0 4.6875-4.683594 4.6875-12.28125 0-16.96875-9.820312-9.820313-22.878906-15.230469-36.769531-15.230469zm0 0"/></g></svg>