<svg xmlns="http://www.w3.org/2000/svg" xmlns:xlink="http://www.w3.org/1999/xlink" viewBox="0 0 431.8 430.2"><defs><style>.cls-1{fill:none;}.cls-2{fill:#76a9da;}.cls-3{isolation:isolate;}.cls-4{fill:#ff7ad7;}.cls-5{fill:#ff3cc4;}.cls-6{fill:#ff5cce;}.cls-7{fill:#ffd061;}.cls-8{fill:#ffc233;}.cls-9{fill:#ffc847;}.cls-10{fill:#ff8138;}.cls-11{fill:#ff6d19;}.cls-12{fill:#ff7729;}.cls-13{fill:#a3f1ff;}.cls-14{fill:#00d8ff;}.cls-15{fill:#30dfff;}.cls-16{fill:url(#Degradado_sin_nombre_75);}.cls-17{fill:#f0eff5;}.cls-18{fill:#fff;}.cls-19{fill:url(#Degradado_sin_nombre_64);}.cls-20{fill:url(#Degradado_sin_nombre_64-2);}.cls-21{fill:url(#Degradado_sin_nombre_64-3);}.cls-22{fill:url(#Degradado_sin_nombre_64-4);}.cls-23{fill:url(#Degradado_sin_nombre_64-5);}.cls-24{fill:#e6deed;}.cls-25{fill:url(#Degradado_sin_nombre_64-6);}.cls-26{fill:url(#Degradado_sin_nombre_64-7);}.cls-109,.cls-27,.cls-76{mix-blend-mode:multiply;}.cls-27{fill:url(#Degradado_sin_nombre_142);}.cls-28{fill:#d2cbe3;}.cls-29{fill:url(#Degradado_sin_nombre_64-8);}.cls-30{fill:url(#Degradado_sin_nombre_142-2);}.cls-31{fill:url(#Degradado_sin_nombre_64-9);}.cls-32{fill:url(#Degradado_sin_nombre_2);}.cls-33{fill:#3a30d1;}.cls-34{fill:url(#Degradado_sin_nombre_75-2);}.cls-35{fill:url(#Degradado_sin_nombre_157);}.cls-36{fill:url(#Degradado_sin_nombre_74);}.cls-37{fill:#473bff;}.cls-38{fill:url(#Degradado_sin_nombre_64-10);}.cls-39{fill:url(#Degradado_sin_nombre_64-11);}.cls-40{fill:url(#Degradado_sin_nombre_64-12);}.cls-41{fill:url(#Degradado_sin_nombre_64-13);}.cls-42{fill:url(#Degradado_sin_nombre_64-14);}.cls-43{fill:url(#Degradado_sin_nombre_64-15);}.cls-44{fill:url(#Degradado_sin_nombre_64-16);}.cls-45{fill:url(#Degradado_sin_nombre_64-17);}.cls-46{fill:url(#Degradado_sin_nombre_64-18);}.cls-47{fill:url(#Degradado_sin_nombre_64-19);}.cls-48{fill:url(#Degradado_sin_nombre_64-20);}.cls-49{fill:url(#Degradado_sin_nombre_159);}.cls-50{fill:url(#Degradado_sin_nombre_64-21);}.cls-51{fill:#5347ff;}.cls-52{fill:url(#Degradado_sin_nombre_64-22);}.cls-53{fill:url(#Degradado_sin_nombre_64-23);}.cls-54{fill:url(#Degradado_sin_nombre_64-24);}.cls-55{fill:url(#Degradado_sin_nombre_64-25);}.cls-56{fill:url(#Degradado_sin_nombre_64-26);}.cls-57{fill:url(#Degradado_sin_nombre_64-27);}.cls-58{fill:url(#Degradado_sin_nombre_64-28);}.cls-59{fill:url(#Degradado_sin_nombre_64-29);}.cls-60{fill:url(#Degradado_sin_nombre_64-30);}.cls-61{fill:url(#Degradado_sin_nombre_64-31);}.cls-62{fill:url(#Degradado_sin_nombre_64-32);}.cls-63{fill:url(#Degradado_sin_nombre_64-33);}.cls-64{fill:url(#Degradado_sin_nombre_64-34);}.cls-65{clip-path:url(#clip-path);}.cls-66{fill:#4800ad;}.cls-67{clip-path:url(#clip-path-2);}.cls-68{clip-path:url(#clip-path-3);}.cls-69{clip-path:url(#clip-path-4);}.cls-70{fill:#5a52d1;}.cls-71{clip-path:url(#clip-path-5);}.cls-72{clip-path:url(#clip-path-6);}.cls-73{fill:#e7f2f9;}.cls-73,.cls-74,.cls-75,.cls-77{opacity:0.61;}.cls-75{fill:url(#Degradado_sin_nombre_5);}.cls-77{fill:url(#Degradado_sin_nombre_5-2);}.cls-78{fill:#403687;}.cls-79{fill:#4236ed;}.cls-80{fill:url(#Degradado_sin_nombre_142-3);}.cls-81{fill:#ffdcca;}.cls-82{fill:#382881;}.cls-83{clip-path:url(#clip-path-7);}.cls-84{fill:url(#Degradado_sin_nombre_64-35);}.cls-85{fill:#1c3577;}.cls-86{clip-path:url(#clip-path-8);}.cls-87{fill:url(#Degradado_sin_nombre_142-4);}.cls-88{fill:url(#Degradado_sin_nombre_4);}.cls-89{fill:url(#Degradado_sin_nombre_75-3);}.cls-90{fill:url(#Degradado_sin_nombre_75-4);}.cls-91{fill:url(#Degradado_sin_nombre_64-36);}.cls-92{fill:url(#Degradado_sin_nombre_64-37);}.cls-93{fill:url(#Degradado_sin_nombre_64-38);}.cls-94{fill:url(#Degradado_sin_nombre_64-39);}.cls-95{fill:url(#Degradado_sin_nombre_64-40);}.cls-96{fill:#cdccd4;}.cls-97{fill:#5f90b3;}.cls-98{clip-path:url(#clip-path-9);}.cls-99{fill:#6598be;}.cls-100{fill:#352e77;}.cls-101{clip-path:url(#clip-path-10);}.cls-102{clip-path:url(#clip-path-11);}.cls-103{fill:#896d2a;}.cls-104{clip-path:url(#clip-path-12);}.cls-105{fill:url(#Degradado_sin_nombre_184);}.cls-106{clip-path:url(#clip-path-13);}.cls-107{fill:url(#Degradado_sin_nombre_157-2);}.cls-108{fill:url(#Degradado_sin_nombre_157-3);}.cls-109{fill:url(#Degradado_sin_nombre_142-5);}.cls-110{fill:url(#Degradado_sin_nombre_142-6);}.cls-111{fill:url(#Degradado_sin_nombre_142-7);}.cls-112{fill:url(#Degradado_sin_nombre_142-8);}</style><linearGradient id="Degradado_sin_nombre_75" x1="125.41" y1="223.3" x2="380.74" y2="180.3" gradientUnits="userSpaceOnUse"><stop offset="0" stop-color="#fff"/><stop offset="0.38" stop-color="#fbf9ff"/><stop offset="0.89" stop-color="#efe9ff"/><stop offset="1" stop-color="#ece4ff"/></linearGradient><linearGradient id="Degradado_sin_nombre_64" x1="157.03" y1="195.96" x2="214.71" y2="195.96" gradientUnits="userSpaceOnUse"><stop offset="0.13" stop-color="#00d8ff"/><stop offset="0.13" stop-color="#00d7ff"/><stop offset="0.44" stop-color="#1990eb"/><stop offset="0.7" stop-color="#2b5cdd"/><stop offset="0.89" stop-color="#363cd4"/><stop offset="1" stop-color="#3a30d1"/></linearGradient><linearGradient id="Degradado_sin_nombre_64-2" x1="230.22" y1="168.83" x2="341.11" y2="168.83" xlink:href="#Degradado_sin_nombre_64"/><linearGradient id="Degradado_sin_nombre_64-3" x1="236.55" y1="209.09" x2="255.81" y2="209.09" xlink:href="#Degradado_sin_nombre_64"/><linearGradient id="Degradado_sin_nombre_64-4" x1="241.65" y1="212.65" x2="258.83" y2="212.65" xlink:href="#Degradado_sin_nombre_64"/><linearGradient id="Degradado_sin_nombre_64-5" x1="246.76" y1="216.52" x2="260.77" y2="216.52" xlink:href="#Degradado_sin_nombre_64"/><linearGradient id="Degradado_sin_nombre_64-6" x1="251.86" y1="221.02" x2="260.53" y2="221.02" xlink:href="#Degradado_sin_nombre_64"/><linearGradient id="Degradado_sin_nombre_64-7" x1="221.47" y1="174.56" x2="330.12" y2="174.56" xlink:href="#Degradado_sin_nombre_64"/><linearGradient id="Degradado_sin_nombre_142" x1="188.12" y1="237.86" x2="267.91" y2="237.86" gradientUnits="userSpaceOnUse"><stop offset="0" stop-color="#ffc233"/><stop offset="0.85" stop-color="#ff50ae"/><stop offset="1" stop-color="#ff3cc4"/></linearGradient><linearGradient id="Degradado_sin_nombre_64-8" x1="86.98" y1="294.04" x2="284.24" y2="256.19" xlink:href="#Degradado_sin_nombre_64"/><linearGradient id="Degradado_sin_nombre_142-2" x1="131.13" y1="271.08" x2="260.48" y2="271.08" xlink:href="#Degradado_sin_nombre_142"/><linearGradient id="Degradado_sin_nombre_64-9" x1="138.32" y1="300.41" x2="158.2" y2="296.71" xlink:href="#Degradado_sin_nombre_64"/><linearGradient id="Degradado_sin_nombre_2" x1="143.64" y1="298.49" x2="153.66" y2="298.49" gradientUnits="userSpaceOnUse"><stop offset="0.11" stop-color="#fff"/><stop offset="1" stop-color="#f9faf9"/></linearGradient><linearGradient id="Degradado_sin_nombre_75-2" x1="272.05" y1="273.77" x2="378.21" y2="273.77" xlink:href="#Degradado_sin_nombre_75"/><linearGradient id="Degradado_sin_nombre_157" x1="284.36" y1="328.23" x2="393.68" y2="264.65" gradientUnits="userSpaceOnUse"><stop offset="0" stop-color="#fff"/><stop offset="0.26" stop-color="#fbf9ff"/><stop offset="0.59" stop-color="#efe9ff"/><stop offset="0.67" stop-color="#ece4ff"/></linearGradient><linearGradient id="Degradado_sin_nombre_74" x1="272" y1="302.06" x2="310.23" y2="302.06" gradientUnits="userSpaceOnUse"><stop offset="0" stop-color="#ece4ff"/><stop offset="1" stop-color="#fff"/></linearGradient><linearGradient id="Degradado_sin_nombre_64-10" x1="307.46" y1="258.07" x2="295.83" y2="255.95" xlink:href="#Degradado_sin_nombre_64"/><linearGradient id="Degradado_sin_nombre_64-11" x1="307.44" y1="258.14" x2="295.82" y2="256.02" xlink:href="#Degradado_sin_nombre_64"/><linearGradient id="Degradado_sin_nombre_64-12" x1="307.46" y1="258.04" x2="295.84" y2="255.91" xlink:href="#Degradado_sin_nombre_64"/><linearGradient id="Degradado_sin_nombre_64-13" x1="307.46" y1="258.06" x2="295.84" y2="255.94" xlink:href="#Degradado_sin_nombre_64"/><linearGradient id="Degradado_sin_nombre_64-14" x1="307.39" y1="258.45" x2="295.76" y2="256.32" xlink:href="#Degradado_sin_nombre_64"/><linearGradient id="Degradado_sin_nombre_64-15" x1="307.42" y1="258.27" x2="295.8" y2="256.15" xlink:href="#Degradado_sin_nombre_64"/><linearGradient id="Degradado_sin_nombre_64-16" x1="306.91" y1="261.11" x2="295.28" y2="258.99" xlink:href="#Degradado_sin_nombre_64"/><linearGradient id="Degradado_sin_nombre_64-17" x1="307.44" y1="258.16" x2="295.82" y2="256.04" xlink:href="#Degradado_sin_nombre_64"/><linearGradient id="Degradado_sin_nombre_64-18" x1="306.98" y1="260.66" x2="295.36" y2="258.53" xlink:href="#Degradado_sin_nombre_64"/><linearGradient id="Degradado_sin_nombre_64-19" x1="306.79" y1="261.69" x2="295.17" y2="259.56" xlink:href="#Degradado_sin_nombre_64"/><linearGradient id="Degradado_sin_nombre_64-20" x1="306.23" y1="264.77" x2="294.61" y2="262.64" xlink:href="#Degradado_sin_nombre_64"/><linearGradient id="Degradado_sin_nombre_159" x1="306.31" y1="264.35" x2="294.69" y2="262.22" gradientUnits="userSpaceOnUse"><stop offset="0.07" stop-color="#00d8ff"/><stop offset="0.13" stop-color="#00d8ff"/><stop offset="0.13" stop-color="#00d7ff"/><stop offset="0.44" stop-color="#1990eb"/><stop offset="0.7" stop-color="#2b5cdd"/><stop offset="0.89" stop-color="#363cd4"/><stop offset="1" stop-color="#3a30d1"/></linearGradient><linearGradient id="Degradado_sin_nombre_64-21" x1="306.44" y1="263.62" x2="294.82" y2="261.5" xlink:href="#Degradado_sin_nombre_64"/><linearGradient id="Degradado_sin_nombre_64-22" x1="334.09" y1="243.91" x2="317.33" y2="242.28" xlink:href="#Degradado_sin_nombre_64"/><linearGradient id="Degradado_sin_nombre_64-23" x1="334.09" y1="243.87" x2="317.34" y2="242.24" xlink:href="#Degradado_sin_nombre_64"/><linearGradient id="Degradado_sin_nombre_64-24" x1="334.09" y1="243.84" x2="317.34" y2="242.21" xlink:href="#Degradado_sin_nombre_64"/><linearGradient id="Degradado_sin_nombre_64-25" x1="334.1" y1="243.82" x2="317.34" y2="242.2" xlink:href="#Degradado_sin_nombre_64"/><linearGradient id="Degradado_sin_nombre_64-26" x1="334.07" y1="244.12" x2="317.31" y2="242.49" xlink:href="#Degradado_sin_nombre_64"/><linearGradient id="Degradado_sin_nombre_64-27" x1="334.08" y1="243.97" x2="317.33" y2="242.34" xlink:href="#Degradado_sin_nombre_64"/><linearGradient id="Degradado_sin_nombre_64-28" x1="333.8" y1="246.87" x2="317.05" y2="245.25" xlink:href="#Degradado_sin_nombre_64"/><linearGradient id="Degradado_sin_nombre_64-29" x1="334.08" y1="244.04" x2="317.32" y2="242.42" xlink:href="#Degradado_sin_nombre_64"/><linearGradient id="Degradado_sin_nombre_64-30" x1="333.84" y1="246.43" x2="317.09" y2="244.81" xlink:href="#Degradado_sin_nombre_64"/><linearGradient id="Degradado_sin_nombre_64-31" x1="333.74" y1="247.44" x2="316.99" y2="245.82" xlink:href="#Degradado_sin_nombre_64"/><linearGradient id="Degradado_sin_nombre_64-32" x1="333.43" y1="250.65" x2="316.68" y2="249.02" xlink:href="#Degradado_sin_nombre_64"/><linearGradient id="Degradado_sin_nombre_64-33" x1="333.47" y1="250.25" x2="316.72" y2="248.62" xlink:href="#Degradado_sin_nombre_64"/><linearGradient id="Degradado_sin_nombre_64-34" x1="333.51" y1="249.85" x2="316.76" y2="248.23" xlink:href="#Degradado_sin_nombre_64"/><clipPath id="clip-path"><polygon class="cls-1" points="301.46 290.38 324.9 276.75 333.05 281.46 309.61 295.08 301.46 290.38"/></clipPath><clipPath id="clip-path-2"><polygon class="cls-1" points="290.37 283.61 301 277.43 308.86 281.97 298.24 288.15 290.37 283.61"/></clipPath><clipPath id="clip-path-3"><path class="cls-1" d="M216.89,308.69V307.1a1.08,1.08,0,0,0,.6.8,3.05,3.05,0,0,0,1.52.35v1.63a3,3,0,0,1-1.51-.35,1.1,1.1,0,0,1-.61-.8Z"/></clipPath><clipPath id="clip-path-4"><path class="cls-1" d="M233.75,310.22v1.63a30.34,30.34,0,0,0-11.86-2v-1.63A30.39,30.39,0,0,1,233.75,310.22Z"/></clipPath><clipPath id="clip-path-5"><path class="cls-1" d="M275.55,338.22v1.63c0-2.45-1.34-4.84-3.87-6.81v-1.63C274.2,333.38,275.56,335.77,275.55,338.22Z"/></clipPath><clipPath id="clip-path-6"><path class="cls-1" d="M279.62,339.9v1.63c0,.65-.92,1.18-2.06,1.17a2.79,2.79,0,0,1-1.42-.35,1,1,0,0,1-.6-.84v-1.63a1,1,0,0,0,.6.84,2.83,2.83,0,0,0,1.43.35C278.7,341.07,279.62,340.55,279.62,339.9Z"/></clipPath><linearGradient id="Degradado_sin_nombre_5" x1="226.4" y1="310.8" x2="252.56" y2="310.8" gradientUnits="userSpaceOnUse"><stop offset="0" stop-color="#fff"/><stop offset="0.18" stop-color="#eaf4fb"/><stop offset="0.56" stop-color="#b3d7f1"/><stop offset="0.68" stop-color="#9fcced"/></linearGradient><linearGradient id="Degradado_sin_nombre_5-2" x1="254.2" y1="327.38" x2="282.26" y2="327.38" xlink:href="#Degradado_sin_nombre_5"/><linearGradient id="Degradado_sin_nombre_142-3" x1="359.09" y1="256.46" x2="370.89" y2="256.46" xlink:href="#Degradado_sin_nombre_142"/><clipPath id="clip-path-7"><polygon class="cls-2" points="187.91 326.93 197.3 321.48 204.04 325.37 194.65 330.82 187.91 326.93"/></clipPath><linearGradient id="Degradado_sin_nombre_64-35" x1="206.16" y1="324.13" x2="187.25" y2="327.88" xlink:href="#Degradado_sin_nombre_64"/><clipPath id="clip-path-8"><polygon class="cls-2" points="88.27 221.39 78.89 215.94 72.15 219.82 81.54 225.28 88.27 221.39"/></clipPath><linearGradient id="Degradado_sin_nombre_142-4" x1="72.15" y1="220.61" x2="88.27" y2="220.61" xlink:href="#Degradado_sin_nombre_142"/><linearGradient id="Degradado_sin_nombre_4" x1="52.03" y1="432.15" x2="503.2" y2="344.37" gradientUnits="userSpaceOnUse"><stop offset="0" stop-color="#f7efff"/><stop offset="0.67" stop-color="#e1d7f7"/></linearGradient><linearGradient id="Degradado_sin_nombre_75-3" x1="228.34" y1="380.12" x2="383.59" y2="382.62" xlink:href="#Degradado_sin_nombre_75"/><linearGradient id="Degradado_sin_nombre_75-4" x1="316.52" y1="342.73" x2="428.81" y2="354.26" xlink:href="#Degradado_sin_nombre_75"/><linearGradient id="Degradado_sin_nombre_64-36" x1="357.99" y1="324.24" x2="431.51" y2="387.4" xlink:href="#Degradado_sin_nombre_64"/><linearGradient id="Degradado_sin_nombre_64-37" x1="90.58" y1="113.38" x2="139.71" y2="113.38" xlink:href="#Degradado_sin_nombre_64"/><linearGradient id="Degradado_sin_nombre_64-38" x1="100.39" y1="107.96" x2="135.39" y2="127.21" xlink:href="#Degradado_sin_nombre_64"/><linearGradient id="Degradado_sin_nombre_64-39" x1="147.04" y1="65.48" x2="221.02" y2="65.48" xlink:href="#Degradado_sin_nombre_64"/><linearGradient id="Degradado_sin_nombre_64-40" x1="152.33" y1="61.26" x2="243.08" y2="81.01" xlink:href="#Degradado_sin_nombre_64"/><clipPath id="clip-path-9"><path class="cls-1" d="M8.54,350.86l0,8.78a17.93,17.93,0,0,1-.09-1.8l0-8.77C8.45,349.67,8.49,350.27,8.54,350.86Z"/></clipPath><clipPath id="clip-path-10"><path class="cls-1" d="M27,373.38l0,8.77c-.59-.31-1.16-.63-1.72-.95-9.67-5.58-15.92-13.15-16.74-21.56l0-8.78c.83,8.41,7.08,16,16.75,21.57C25.85,372.75,26.42,373.07,27,373.38Z"/></clipPath><clipPath id="clip-path-11"><path class="cls-1" d="M104.22,373.19l0,8.77c-10.14,5.45-23.72,8.77-38.65,8.77l0-8.77C80.51,382,94.08,378.63,104.22,373.19Z"/></clipPath><clipPath id="clip-path-12"><path class="cls-1" d="M65.57,382l0,8.77c-14.9,0-28.48-3.31-38.67-8.72l0-8.78C37.09,378.65,50.67,382,65.57,382Z"/></clipPath><linearGradient id="Degradado_sin_nombre_184" x1="61" y1="363.86" x2="122.5" y2="322.36" gradientUnits="userSpaceOnUse"><stop offset="0" stop-color="#fff"/><stop offset="0.62" stop-color="#f3efff"/><stop offset="0.94" stop-color="#ece4ff"/></linearGradient><clipPath id="clip-path-13"><path class="cls-1" d="M124.05,333.57l0,8.78c0,.55,0,1.1-.07,1.64-.77,8.87-7.59,16.82-18.13,22.47l0-8.77c10.53-5.66,17.35-13.6,18.13-22.47C124,334.67,124.05,334.13,124.05,333.57Z"/></clipPath><linearGradient id="Degradado_sin_nombre_157-2" x1="95.4" y1="366.65" x2="125.15" y2="342.15" xlink:href="#Degradado_sin_nombre_157"/><linearGradient id="Degradado_sin_nombre_157-3" x1="58.76" y1="335.55" x2="107.51" y2="362.55" xlink:href="#Degradado_sin_nombre_157"/><linearGradient id="Degradado_sin_nombre_142-5" x1="12.13" y1="113.14" x2="53.24" y2="154.25" xlink:href="#Degradado_sin_nombre_142"/><linearGradient id="Degradado_sin_nombre_142-6" x1="22.4" y1="121.68" x2="54.9" y2="154.18" xlink:href="#Degradado_sin_nombre_142"/><linearGradient id="Degradado_sin_nombre_142-7" x1="2478.15" y1="18.61" x2="2519.27" y2="59.73" gradientTransform="matrix(-1, 0, 0, 1, 2848.41, 0)" xlink:href="#Degradado_sin_nombre_142"/><linearGradient id="Degradado_sin_nombre_142-8" x1="2488.42" y1="27.16" x2="2520.92" y2="59.66" gradientTransform="matrix(-1, 0, 0, 1, 2848.41, 0)" xlink:href="#Degradado_sin_nombre_142"/></defs><title>Asset 1</title><g class="cls-3"><g id="Layer_2" data-name="Layer 2"><g id="OBJECTS"><g class="cls-3"><polygon class="cls-4" points="294.65 42.54 275.59 53.62 256.42 42.55 275.47 31.47 294.65 42.54"/><polygon class="cls-5" points="294.65 42.54 294.42 124.06 275.36 135.13 275.59 53.62 294.65 42.54"/><polygon class="cls-6" points="275.59 53.62 275.36 135.13 256.19 124.06 256.42 42.55 275.59 53.62"/></g><g class="cls-3"><polygon class="cls-7" points="323.38 75.91 304.32 86.98 285.15 75.91 304.21 64.84 323.38 75.91"/><polygon class="cls-8" points="323.38 75.91 323.15 140.42 304.09 151.49 304.32 86.98 323.38 75.91"/><polygon class="cls-9" points="304.32 86.98 304.09 151.49 284.92 140.42 285.15 75.91 304.32 86.98"/></g><g class="cls-3"><polygon class="cls-10" points="352.61 109.8 333.55 120.87 314.38 109.8 333.44 98.73 352.61 109.8"/><polygon class="cls-11" points="352.61 109.8 352.38 157.3 333.32 168.37 333.55 120.87 352.61 109.8"/><polygon class="cls-12" points="333.55 120.87 333.32 168.37 314.15 157.3 314.38 109.8 333.55 120.87"/></g><g class="cls-3"><polygon class="cls-13" points="382.17 143.62 363.11 154.69 343.94 143.62 362.99 132.55 382.17 143.62"/><polygon class="cls-14" points="382.17 143.62 381.94 174.11 362.88 185.18 363.11 154.69 382.17 143.62"/><polygon class="cls-15" points="363.11 154.69 362.88 185.18 343.71 174.11 343.94 143.62 363.11 154.69"/></g><polygon class="cls-16" points="241.07 126.19 78.64 220.52 196.96 288.88 359.38 194.55 241.07 126.19"/><polygon class="cls-1" points="199.92 156.98 199.92 156.98 199.92 156.98 199.92 156.98"/><polygon class="cls-1" points="252.47 203.5 236.55 212.75 236.55 212.75 236.55 212.75 252.47 203.5"/><polygon class="cls-1" points="241.17 204.15 252.76 197.42 252.76 197.42 241.17 204.15"/><polygon class="cls-1" points="255.26 219.63 251.86 221.6 251.86 221.6 251.86 221.6 255.26 219.63"/><polygon class="cls-1" points="169.44 245.81 169.44 245.81 169.44 245.81 169.44 245.81"/><polygon class="cls-1" points="126.73 199.49 126.73 199.49 126.73 199.49 126.73 199.49"/><polygon class="cls-1" points="174 243.17 173.22 243.62 174 243.17 174 243.17"/><polygon class="cls-1" points="222.9 214.76 208.09 223.37 222.9 214.76 222.9 214.76"/><polygon class="cls-1" points="162.44 249.87 162.44 249.87 162.44 249.87 162.44 249.87"/><polygon class="cls-1" points="104.55 212.37 105.6 211.76 105.6 211.76 104.55 212.37 104.55 212.37 104.55 212.37 104.55 212.37"/><polygon class="cls-1" points="134.36 195.06 133.85 195.36 134.36 195.06 134.36 195.06"/><polygon class="cls-1" points="142.89 190.1 142.89 190.1 142.89 190.1 142.89 190.1"/><rect class="cls-1" x="137.5" y="193.23"/><polygon class="cls-1" points="148.27 186.97 148.27 186.97 148.27 186.97 148.27 186.97"/><polygon class="cls-17" points="230.92 139.79 230.22 139.39 230.22 139.39 230.92 139.79 230.92 139.79"/><polygon class="cls-17" points="230.62 139.16 230.22 139.39 234.69 136.79 230.62 139.16"/><polygon class="cls-17" points="216.08 147.6 216.08 147.6 217.2 146.95 216.08 147.6"/><polygon class="cls-17" points="205.31 153.85 205.31 153.85 206.01 154.26 205.31 153.85"/><polygon class="cls-17" points="206.54 153.14 205.31 153.85 205.31 153.85 207.54 152.56 206.54 153.14"/><polygon class="cls-18" points="200.62 157.39 306.33 218.47 308.57 217.16 202.15 155.69 202.15 155.69 201.08 156.31 199.92 156.98 199.92 156.98 200.62 157.39 200.62 157.39"/><polygon class="cls-17" points="202.15 155.69 201.08 156.31 202.15 155.69 202.15 155.69"/><polygon class="cls-17" points="200.62 157.39 200.62 157.39 199.92 156.98 199.92 156.98 200.62 157.39"/><polygon class="cls-19" points="161.51 179.29 161.5 179.29 159.4 180.51 157.03 181.89 157.03 181.89 157.03 181.89 157.74 182.3 210.24 212.63 214.71 210.03 161.51 179.29"/><polygon class="cls-17" points="148.98 187.38 148.98 187.38 148.27 186.97 148.27 186.97 148.98 187.38"/><polygon class="cls-17" points="143.59 190.51 143.59 190.51 142.89 190.1 142.89 190.1 143.59 190.51"/><polygon class="cls-17" points="139.66 191.98 137.5 193.23 137.5 193.23 139.66 191.98"/><polygon class="cls-17" points="137.5 193.23 137.5 193.24 138.21 193.64 138.21 193.64 137.5 193.23"/><polygon class="cls-17" points="132.82 196.77 132.12 196.36 134.36 195.06 165.32 212.95 134.36 195.06 133.85 195.36 132.12 196.36 132.82 196.77 132.82 196.77"/><polygon class="cls-17" points="253.54 197.87 252.76 197.42 252.76 197.42 253.54 197.87"/><polygon class="cls-17" points="127.14 199.25 126.73 199.49 126.73 199.49 127.14 199.25"/><polygon class="cls-17" points="126.73 199.49 127.43 199.9 126.73 199.49 126.73 199.49"/><polygon class="cls-20" points="230.92 139.79 336.63 200.86 341.11 198.26 234.69 136.79 230.22 139.39 230.92 139.79 230.92 139.79"/><polygon class="cls-9" points="112.25 208.71 164.76 239.05 165.81 238.44 112.61 207.69 112.41 207.81 111.55 208.31 112.26 208.71 112.25 208.71"/><polygon class="cls-17" points="112.26 208.71 111.55 208.31 111.55 208.31 111.55 208.31 112.25 208.71 112.26 208.71"/><polygon class="cls-18" points="324.73 207.78 218.31 146.3 217.2 146.95 216.08 147.6 322.49 209.08 324.73 207.78"/><polygon class="cls-5" points="231.44 209.8 231.44 209.8 231.44 209.8 234.79 211.74 256.1 199.36 256.1 199.36 253.54 197.87 252.76 197.42 252.76 197.42 241.17 204.15 231.44 209.8"/><polygon class="cls-17" points="108.05 210.34 108.75 210.74 108.75 210.74 108.05 210.34"/><polygon class="cls-17" points="104.55 212.37 105.6 211.76 105.6 211.76 104.55 212.37 104.55 212.37"/><polygon class="cls-17" points="104.55 212.37 104.55 212.37 105.25 212.78 105.25 212.78 104.55 212.37"/><polygon class="cls-21" points="252.47 203.5 252.47 203.5 236.55 212.75 236.55 212.75 239.89 214.68 239.89 214.68 255.81 205.44 252.47 203.5"/><polygon class="cls-17" points="260.77 214.39 258.65 213.16 260.77 214.39 260.77 214.39"/><polygon class="cls-17" points="102.09 213.8 101.79 213.97 101.05 214.41 102.1 213.8 102.09 213.8"/><polygon class="cls-17" points="101.05 214.41 101.05 214.41 101.05 214.41 101.75 214.81 101.75 214.81 101.05 214.41"/><polygon class="cls-18" points="311.72 215.34 313.96 214.03 207.54 152.56 205.31 153.85 206.01 154.26 311.72 215.34"/><polygon class="cls-22" points="255.49 207.67 255.49 207.67 241.65 215.7 241.65 215.7 241.65 215.7 242.35 216.1 244.99 217.63 258.83 209.6 255.49 207.67"/><polygon class="cls-5" points="148.98 187.38 201.49 217.71 203.72 216.42 150.52 185.68 148.74 186.71 148.27 186.97 148.98 187.38 148.98 187.38"/><polygon class="cls-23" points="258.65 213.16 257.43 212.46 257.42 212.46 251.76 215.75 246.75 218.65 246.75 218.65 246.75 218.65 247.46 219.06 250.1 220.58 260.77 214.39 258.65 213.16"/><polygon class="cls-24" points="143.59 190.51 196.1 220.84 198.33 219.54 145.13 188.8 142.89 190.1 143.59 190.51 143.59 190.51"/><polygon class="cls-25" points="258.63 219.34 257.19 218.51 255.26 219.63 251.86 221.6 251.86 221.6 252.57 222 255.21 223.53 260.53 220.44 258.63 219.34"/><polygon class="cls-24" points="138.21 193.64 138.21 193.64 190.71 223.97 192.95 222.67 139.74 191.93 139.66 191.98 137.5 193.23 138.21 193.64"/><polygon class="cls-24" points="132.12 196.36 132.82 196.77 132.82 196.77 185.32 227.1 187.56 225.8 165.32 212.95 134.36 195.06 132.12 196.36"/><polygon class="cls-24" points="108.53 210.06 108.05 210.34 108.05 210.34 108.05 210.34 108.75 210.74 108.75 210.74 161.26 241.08 162.31 240.47 109.1 209.73 108.53 210.06"/><polygon class="cls-24" points="104.55 212.37 105.25 212.78 105.25 212.78 157.75 243.11 158.81 242.5 105.6 211.76 104.55 212.37"/><polygon class="cls-17" points="174 243.17 173.22 243.62 172.95 243.78 174 243.17 174 243.17"/><polygon class="cls-17" points="172.95 243.78 172.95 243.78 172.95 243.78 173.65 244.18 173.65 244.18 172.95 243.78"/><polygon class="cls-17" points="155.31 244.53 155.31 244.53 126.24 227.74 155.31 244.53"/><polygon class="cls-24" points="102.1 213.8 101.05 214.41 101.75 214.81 101.75 214.81 154.25 245.14 155.31 244.53 126.24 227.74 102.1 213.8"/><polygon class="cls-17" points="169.44 245.81 169.44 245.81 170.14 246.21 170.14 246.21 169.44 245.81"/><polygon class="cls-17" points="166.99 247.23 166.41 247.56 166.99 247.23 166.99 247.23"/><polygon class="cls-17" points="165.94 247.84 165.94 247.84 165.94 247.84 165.94 247.84 166.65 248.24 166.65 248.24 165.94 247.84"/><polygon class="cls-24" points="208.51 275.27 163.49 249.26 162.44 249.87 163.15 250.28 163.15 250.28 207.46 275.88 208.51 275.27"/><polygon class="cls-17" points="162.44 249.87 162.44 249.87 163.15 250.28 163.15 250.28 162.44 249.87"/><polygon class="cls-17" points="163.49 249.26 163.32 249.36 162.44 249.87 163.49 249.26 163.49 249.26"/><polygon class="cls-24" points="172.95 243.78 173.65 244.18 173.65 244.18 217.97 269.78 219.01 269.17 174 243.17 172.95 243.78"/><polygon class="cls-24" points="169.44 245.81 170.14 246.21 170.14 246.21 214.47 271.82 215.51 271.21 170.49 245.19 169.44 245.81"/><polygon class="cls-26" points="327.89 205.95 330.12 204.65 223.71 143.17 221.47 144.47 274.68 175.21 327.89 205.95"/><polygon class="cls-18" points="319.34 210.91 319.34 210.91 319.34 210.91 212.93 149.43 211.81 150.08 210.7 150.73 210.7 150.73 317.1 212.21 319.34 210.91"/><polygon class="cls-24" points="126.73 199.49 127.43 199.9 179.94 230.23 179.94 230.23 179.94 230.23 182.18 228.93 128.97 198.19 127.14 199.25 126.73 199.49 126.73 199.49 126.73 199.49 126.73 199.49 126.73 199.49"/><polygon class="cls-27" points="267.91 240.77 267.91 240.77 227.65 217.51 222.9 214.76 208.09 223.37 188.12 234.96 188.82 235.36 233.15 260.97 233.15 260.97 267.91 240.77"/><polygon class="cls-24" points="166.99 247.23 166.41 247.56 165.94 247.84 165.94 247.84 166.65 248.24 166.65 248.24 210.96 273.85 211.41 273.59 212.02 273.24 166.99 247.23 166.99 247.23"/><polygon class="cls-28" points="359.38 194.55 196.96 288.88 78.64 220.52 78.64 220.52 78.64 220.52 78.64 220.52 78.64 221.34 196.96 289.69 359.38 195.36 359.38 194.55 359.38 194.55"/><path class="cls-29" d="M270.19,250.46l-39-22.53a16.53,16.53,0,0,0-15,0l-1.13.65-2,1.14-87.31,50.74-2,1.14-1.86,1.08c-2.12,1.24-3.15,2.86-3.08,4.47a38.12,38.12,0,0,1,0,4c-.1,1.66.94,3.33,3.13,4.6l3.32,1.91L161,318.28a16.59,16.59,0,0,0,15,0l1.86-1.08,2-1.14,57.25-33.27,30.06-17.47,2-1.14.69-.4.44-.26c2.12-1.23,3.14-2.85,3.08-4.47a35.58,35.58,0,0,1,0-4C273.42,253.4,272.38,251.73,270.19,250.46Z"/><path class="cls-18" d="M268.93,258.41c3.41-2,3.39-5.21,0-7.19l-39-22.53a13.67,13.67,0,0,0-12.42,0l-1.13.65-2,1.14L127,281.22l-2,1.14-1.86,1.08c-3.41,2-3.39,5.21,0,7.19l39,22.54a13.73,13.73,0,0,0,12.42,0l1.86-1.09,2-1.13,87.31-50.74,2-1.14Zm-23-17.07a1.14,1.14,0,0,1,1.05,0,.32.32,0,0,1,0,.61,1.21,1.21,0,0,1-1.05,0A.32.32,0,0,1,245.94,241.34Zm-7.29-.09a.87.87,0,0,1,.83,0l7.69,4.44c.23.13.24.34,0,.48a.93.93,0,0,1-.83,0l-7.7-4.44C238.42,241.59,238.42,241.38,238.65,241.25Zm-5.1-3.09a2.2,2.2,0,0,1,2,0,.6.6,0,0,1,0,1.14,2.18,2.18,0,0,1-2,0C233,239,233,238.48,233.55,238.16Zm-80.74,62.73a9.14,9.14,0,0,1-8.29,0c-2.3-1.33-2.31-3.48,0-4.8a9.16,9.16,0,0,1,8.3,0C155.08,297.41,155.1,299.56,152.81,300.89Zm24.79,7.69-46.47-26.83L214,233.59l46.47,26.83Z"/><polygon class="cls-30" points="131.13 281.75 177.6 308.58 260.48 260.42 214.01 233.59 131.13 281.75"/><path class="cls-18" d="M233.56,239.3a2.18,2.18,0,0,0,2,0,.6.6,0,0,0,0-1.14,2.2,2.2,0,0,0-2,0C233,238.48,233,239,233.56,239.3Zm.2-1a1.7,1.7,0,0,1,1.55,0c.44.25.44.65,0,.9a1.72,1.72,0,0,1-1.56,0A.48.48,0,0,1,233.76,238.28Z"/><path class="cls-28" d="M233.76,239.18a1.72,1.72,0,0,0,1.56,0c.43-.25.43-.65,0-.9a1.7,1.7,0,0,0-1.55,0A.48.48,0,0,0,233.76,239.18Z"/><path class="cls-18" d="M245.94,242a1.21,1.21,0,0,0,1.05,0,.32.32,0,0,0,0-.61,1.14,1.14,0,0,0-1.05,0A.32.32,0,0,0,245.94,242Zm.11-.55a.93.93,0,0,1,.83,0,.25.25,0,0,1,0,.48.87.87,0,0,1-.83,0A.25.25,0,0,1,246.05,241.4Z"/><path class="cls-28" d="M246.05,241.88a.87.87,0,0,0,.83,0,.25.25,0,0,0,0-.48.93.93,0,0,0-.83,0A.25.25,0,0,0,246.05,241.88Z"/><path class="cls-28" d="M238.65,241.73l7.7,4.44a.93.93,0,0,0,.83,0c.23-.14.22-.35,0-.48l-7.69-4.44a.87.87,0,0,0-.83,0C238.42,241.38,238.42,241.59,238.65,241.73Z"/><path class="cls-31" d="M152.79,296.08a9.16,9.16,0,0,0-8.3,0c-2.28,1.32-2.27,3.47,0,4.8a9.14,9.14,0,0,0,8.29,0C155.1,299.56,155.08,297.41,152.79,296.08Zm-.58,4.46a7.84,7.84,0,0,1-7.09,0c-2-1.13-2-3,0-4.11a7.84,7.84,0,0,1,7.09,0C154.15,297.57,154.16,299.4,152.21,300.54Z"/><path class="cls-32" d="M152.18,296.43a7.84,7.84,0,0,0-7.09,0c-2,1.14-1.94,3,0,4.11a7.84,7.84,0,0,0,7.09,0C154.16,299.4,154.15,297.57,152.18,296.43Z"/><path class="cls-33" d="M143.64,306.13v-.41a.49.49,0,0,0-.23-.39l-3.85-2.23c-.13-.07-.23,0-.23.13v.83a.51.51,0,0,0,.22.39l1.93,1.12,1.93,1.11a.14.14,0,0,0,.23-.13Z"/><g class="cls-3"><polygon class="cls-34" points="378.21 265.14 310.23 304.45 272.05 282.41 340.03 243.09 378.21 265.14"/><polygon class="cls-35" points="378.21 265.14 378.16 282.41 310.19 321.72 310.23 304.45 378.21 265.14"/><polygon class="cls-36" points="310.23 304.45 310.19 321.72 272 299.68 272.05 282.41 310.23 304.45"/></g><polygon class="cls-18" points="310.23 319.23 297.1 312.29 310.19 319.94 320.59 313.83 310.23 319.23"/><polygon class="cls-18" points="310.23 315.66 280.06 298.61 310.19 316.37 335.52 302.06 310.23 315.66"/><polygon class="cls-18" points="310.23 313.55 292.54 303.94 310.19 314.25 329.68 302.81 310.23 313.55"/><polygon class="cls-18" points="378.21 270.56 378.21 269.97 368.54 276.24 378.21 270.56"/><polygon class="cls-18" points="378.21 277.72 378.21 277.42 371.75 281.44 378.21 277.72"/><polygon class="cls-24" points="344 279.49 314.13 261.89 314.93 261.46 344.77 279.04 344 279.49"/><path class="cls-37" d="M307.4,268.9c0-.87-1.18-1.57-2.64-1.57s-2.64.7-2.64,1.57v.6c0,.87,1.18,1.58,2.64,1.58s2.64-.71,2.64-1.58Z"/><path class="cls-33" d="M306.57,268.9c0,.59-.81,1.08-1.81,1.08s-1.8-.49-1.8-1.08.8-1.08,1.8-1.08S306.57,268.3,306.57,268.9Z"/><path class="cls-38" d="M299.09,256.53l.19.06Z"/><path class="cls-39" d="M297.78,256.4l.18,0Z"/><path class="cls-40" d="M298.64,256.43l.18,0Z"/><path class="cls-41" d="M298.2,256.39h0Z"/><path class="cls-42" d="M297,256.61l.16-.08Z"/><path class="cls-43" d="M297.4,256.48l.17-.05Z"/><path class="cls-44" d="M297.37,259.47c0-.07.08-.12.11-.18S297.4,259.4,297.37,259.47Z"/><path class="cls-45" d="M299.58,256.71l.17.06Z"/><path class="cls-46" d="M297.66,259s.11-.08.16-.13S297.7,259,297.66,259Z"/><path class="cls-47" d="M297.19,260a1.39,1.39,0,0,1,.06-.19A1.39,1.39,0,0,0,297.19,260Z"/><path class="cls-48" d="M297.66,259a2.4,2.4,0,0,0-.18.26c0,.06-.08.11-.11.18s-.08.25-.12.37a1.39,1.39,0,0,0-.06.19,3.55,3.55,0,0,0-.07.68l0,7.22,1.11-.64,0-7.22a2.55,2.55,0,0,1,.43-1.53,1.53,1.53,0,0,0-.84.36C297.77,259,297.7,259,297.66,259Z"/><path class="cls-49" d="M300.24,257l-.49-.26-.17-.06-.3-.12-.19-.06-.27-.07-.18,0-.26,0H298l-.18,0-.21,0-.17.05-.2,0-.16.08-.18.08a3.36,3.36,0,0,0-1.4,3.06l0,9.14,1.66-1,0-7.22a3.55,3.55,0,0,1,.07-.68,1.39,1.39,0,0,1,.06-.19c0-.12.07-.26.12-.37s.08-.12.11-.18a2.4,2.4,0,0,1,.18-.26s.11-.08.16-.13a1.53,1.53,0,0,1,.84-.36,2.61,2.61,0,0,1,1.57.4,6.79,6.79,0,0,1,3.08,5.34v5.25a2.35,2.35,0,0,0,1.46.45l.21,0v-4.72A10.46,10.46,0,0,0,300.24,257Z"/><path class="cls-50" d="M301.34,256.39a3.38,3.38,0,0,0-3.39-.33l-1.1.64h0l.18-.08.16-.08.2,0,.17-.05.21,0,.18,0h.42l.26,0,.18,0,.27.07.19.06.3.12.17.06.49.26a10.46,10.46,0,0,1,4.74,8.21V270a2.41,2.41,0,0,0,1.1-.32v-5A10.46,10.46,0,0,0,301.34,256.39Z"/><path class="cls-51" d="M305.56,270.16a2,2,0,0,1-1,.07c-.3-.05-.33.42,0,.47a2.54,2.54,0,0,0,1.13-.08C305.94,270.53,305.84,270.07,305.56,270.16Z"/><path class="cls-37" d="M331.14,255.17c0-.87-1.18-1.58-2.64-1.58s-2.63.71-2.63,1.58v.6c0,.87,1.18,1.57,2.63,1.57s2.64-.7,2.64-1.57Z"/><path class="cls-33" d="M330.31,255.17c0,.59-.81,1.07-1.81,1.07s-1.8-.48-1.8-1.07.81-1.08,1.8-1.08S330.31,254.57,330.31,255.17Z"/><path class="cls-52" d="M322.83,242.8l.19,0Z"/><path class="cls-53" d="M321.53,242.67l.18,0Z"/><path class="cls-54" d="M322.38,242.7l.18,0Z"/><path class="cls-55" d="M321.94,242.65h0Z"/><path class="cls-56" d="M320.78,242.88l.16-.08Z"/><path class="cls-57" d="M321.14,242.74l.17,0Z"/><path class="cls-58" d="M321.11,245.74c0-.07.08-.12.12-.18S321.15,245.67,321.11,245.74Z"/><path class="cls-59" d="M323.32,243l.17.07Z"/><path class="cls-60" d="M321.4,245.3l.16-.13Z"/><path class="cls-61" d="M320.93,246.3l.06-.19Z"/><path class="cls-62" d="M321.4,245.3a1.17,1.17,0,0,0-.17.26c0,.06-.08.11-.12.18a3.22,3.22,0,0,0-.12.37l-.06.19a3.48,3.48,0,0,0-.06.67l0,7.23,1.11-.65,0-7.22a2.61,2.61,0,0,1,.43-1.52,1.52,1.52,0,0,0-.84.36Z"/><path class="cls-63" d="M324,243.29c-.16-.09-.33-.18-.49-.25l-.17-.07-.3-.12-.19,0-.27-.08-.18,0a1.17,1.17,0,0,0-.26,0h-.18a1.76,1.76,0,0,0-.23,0l-.18,0a1.66,1.66,0,0,0-.22,0l-.17,0-.2.06-.16.08-.17.08a3.32,3.32,0,0,0-1.4,3l0,9.14,1.65-1,0-7.23a3.48,3.48,0,0,1,.06-.67l.06-.19a3.22,3.22,0,0,1,.12-.37c0-.07.08-.12.12-.18a1.17,1.17,0,0,1,.17-.26l.16-.13a1.52,1.52,0,0,1,.84-.36,2.64,2.64,0,0,1,1.58.4,6.82,6.82,0,0,1,3.08,5.34v5.24a2.29,2.29,0,0,0,1.46.45h.21v-4.72A10.48,10.48,0,0,0,324,243.29Z"/><path class="cls-64" d="M325.08,242.65a3.33,3.33,0,0,0-3.38-.32l-1.1.64h0l.17-.08.16-.08.2-.06.17,0a1.66,1.66,0,0,1,.22,0l.18,0a1.76,1.76,0,0,1,.23,0h.18a1.17,1.17,0,0,1,.26,0l.18,0,.27.08.19,0,.3.12.17.07c.16.07.33.16.49.25a10.48,10.48,0,0,1,4.74,8.22v4.72a2.5,2.5,0,0,0,1.1-.32v-1.48l0-3.56A10.49,10.49,0,0,0,325.08,242.65Z"/><path class="cls-51" d="M329.3,256.43a2.15,2.15,0,0,1-1,.07c-.3-.05-.32.41,0,.46a2.32,2.32,0,0,0,1.14-.08C329.68,256.79,329.59,256.34,329.3,256.43Z"/><g class="cls-3"><g class="cls-65"><path class="cls-66" d="M317.48,290.36l-8.37-4.27-1.29.75,2.41,3a22,22,0,0,0,1.84,2l0,0c-1-.36-2.15-.71-3.45-1.08l-5.15-1.42-1.28.74,7.33,4.88,1-.57-3.18-2.07c-1.11-.72-2.37-1.52-3.33-2.1h0c1.16.41,2.49.81,4,1.24l5,1.43.76-.45-2.44-3c-.69-.85-1.35-1.61-2-2.3l0,0,.24.14c.95.55,2.21,1.2,3.28,1.76l3.67,1.88,1-.57"/><path class="cls-66" d="M315.75,286.85c-1.73-1-2.45-2.39-.77-3.36s4.13-.51,5.7.4c1.79,1,2.37,2.42.76,3.35s-4,.58-5.69-.39m5.95-3.61a7.77,7.77,0,0,0-7.51-.26c-2.09,1.22-2,3.06.5,4.51a7.84,7.84,0,0,0,7.53.26c2-1.16,2.2-2.95-.52-4.51"/><path class="cls-66" d="M332.92,281.38,325,276.83l-1,.56,3.3,1.9c1.23.71,2.21,1.25,3.36,1.8v0c-1.19-.25-2.47-.46-4-.66l-6.5-.84-1.11.64L327,284.8l1-.55-3.38-1.95c-1.3-.76-2.28-1.29-3.33-1.83l0,0c1.25.25,2.68.48,4.1.66l6.49.87,1-.6"/></g></g><g class="cls-3"><g class="cls-67"><path class="cls-5" d="M302.94,285.27l-.86-.5-3.39,2,0,0,0-.67c.05-1.82-.08-3.06-1.49-3.87a4.62,4.62,0,0,0-4.52.06,2.48,2.48,0,0,0-1.37,1.7l1.06.22a1.79,1.79,0,0,1,1-1.3,2.88,2.88,0,0,1,3,0c1.14.67,1.25,1.74,1.17,3.93l0,.92.63.36,4.83-2.8"/><path class="cls-5" d="M306.26,280.47a4.72,4.72,0,0,0-3-.5,6,6,0,0,0-2,.71,4.85,4.85,0,0,0-.57.39l-1.67-1.3,2.89-1.68-.86-.49-3.62,2.1,3.16,2.39c.25-.18.54-.4,1-.66a3.81,3.81,0,0,1,3.86-.29c1,.59.82,1.43-.15,2a6,6,0,0,1-2,.69l.53.61a6.94,6.94,0,0,0,2.35-.83c1.64-1,1.7-2.28.21-3.14"/></g></g><g class="cls-3"><polygon class="cls-33" points="221.88 308.19 221.88 309.82 219.01 309.88 219.02 308.25 221.88 308.19"/><g class="cls-3"><g class="cls-68"><g class="cls-3"><path class="cls-33" d="M219,308.25v1.63h-.15v-1.64H219"/><path class="cls-33" d="M218.87,308.24v1.64l-.2,0v-1.63h.2"/><path class="cls-33" d="M218.67,308.23v1.63l-.2,0v-1.63l.2,0"/><path class="cls-33" d="M218.47,308.21v1.63l-.2,0v-1.63l.21,0"/><path class="cls-33" d="M218.26,308.18v1.63l-.22-.06v-1.63l.21.06"/><path class="cls-33" d="M218.05,308.12v1.63l-.24-.08V308l.25.08"/><path class="cls-33" d="M217.8,308v1.63a2.09,2.09,0,0,1-.3-.14,1.1,1.1,0,0,1-.61-.8V307.1a1.08,1.08,0,0,0,.6.8,2.09,2.09,0,0,0,.3.14"/></g></g></g><g class="cls-3"><g class="cls-69"><g class="cls-3"><path class="cls-33" d="M233.75,310.22v1.63l-.2-.08v-1.63l.2.08"/><path class="cls-33" d="M233.55,310.14v1.63a24.21,24.21,0,0,0-2.36-.8v-1.63a24.4,24.4,0,0,1,2.37.8"/><path class="cls-33" d="M231.18,309.34V311c-.67-.19-1.36-.36-2.06-.5v-1.63c.7.14,1.38.31,2.05.5"/><path class="cls-33" d="M229.13,308.84v1.63c-.63-.13-1.28-.25-1.93-.34V308.5c.65.09,1.29.21,1.93.34"/><path class="cls-33" d="M227.2,308.5v1.63c-.62-.09-1.25-.16-1.88-.21v-1.63q1,.07,1.89.21"/><path class="cls-33" d="M225.31,308.29v1.63c-.63-.05-1.26-.08-1.9-.1v-1.63c.63,0,1.27.05,1.89.1"/><path class="cls-33" d="M223.42,308.19v1.63h-1.53v-1.63h1.54"/></g></g></g><path class="cls-70" d="M283.71,328.08l-1.92,1.6-48-19.46a30.39,30.39,0,0,0-11.87-2l-2.86.06a3.05,3.05,0,0,1-1.52-.35,1.08,1.08,0,0,1-.6-.8c0-.65.84-1.2,2-1.22l4.25-.09a22.74,22.74,0,0,1,8.83,1.51Z"/><polygon class="cls-33" points="283.71 328.08 283.7 329.71 281.79 331.31 281.79 329.68 283.71 328.08"/><polygon class="cls-33" points="281.79 329.68 281.79 331.31 233.74 311.85 233.75 310.22 281.79 329.68"/></g><g class="cls-3"><polygon class="cls-33" points="271.67 331.41 271.67 333.04 233 302.98 233.01 301.35 271.67 331.41"/><g class="cls-3"><g class="cls-71"><g class="cls-3"><path class="cls-33" d="M275.55,338.22v1.63c0-2.45-1.34-4.84-3.87-6.81v-1.63c2.53,2,3.89,4.36,3.88,6.81"/></g></g></g><polygon class="cls-33" points="275.54 339.88 275.54 341.51 275.54 339.85 275.55 338.22 275.54 339.88"/><polygon class="cls-33" points="279.63 337.43 279.63 339.06 279.62 341.53 279.62 339.89 279.63 337.43"/><path class="cls-70" d="M235.7,300.18l41.07,32.19a6.49,6.49,0,0,1,2.86,5.06v2.47c0,.65-.92,1.17-2.05,1.17a2.83,2.83,0,0,1-1.43-.35,1,1,0,0,1-.6-.84v-1.66c0-2.45-1.35-4.84-3.88-6.81L233,301.35Z"/><g class="cls-3"><g class="cls-72"><g class="cls-3"><path class="cls-33" d="M279.62,339.9v1.63h0v-1.63h0"/><path class="cls-33" d="M279.62,339.91v1.63a.5.5,0,0,1,0,.12V340a.49.49,0,0,0,0-.12"/><path class="cls-33" d="M279.61,340v1.63a.2.2,0,0,1,0,.11v-1.63l0-.11"/><path class="cls-33" d="M279.58,340.14v1.63a.61.61,0,0,1-.05.12v-1.63l.06-.12"/><path class="cls-33" d="M279.52,340.26v1.63l-.08.12v-1.63a.83.83,0,0,0,.08-.12"/><path class="cls-33" d="M279.44,340.38V342l-.13.14v-1.64l.12-.13"/><path class="cls-33" d="M279.32,340.51v1.64a2,2,0,0,1-.26.19v-1.63l.26-.2"/><path class="cls-33" d="M279.06,340.71v1.63a2.9,2.9,0,0,1-.47.21v-1.63a2.67,2.67,0,0,0,.48-.21"/><path class="cls-33" d="M278.58,340.92v1.63a2.23,2.23,0,0,1-.39.09V341a2.34,2.34,0,0,0,.38-.09"/><path class="cls-33" d="M278.2,341v1.63l-.26,0v-1.63l.26,0"/><path class="cls-33" d="M277.94,341.05v1.63l-.22,0v-1.63l.23,0"/><path class="cls-33" d="M277.71,341.07v1.63h-.22v-1.63h.22"/><path class="cls-33" d="M277.49,341.07v1.63h-.21v-1.63h.2"/><path class="cls-33" d="M277.29,341.06v1.63l-.19,0V341l.2,0"/><path class="cls-33" d="M277.09,341v1.63l-.2,0V341l.2,0"/><path class="cls-33" d="M276.89,341v1.63l-.21-.05V341l.21.05"/><path class="cls-33" d="M276.68,341v1.63l-.25-.08v-1.64a1.7,1.7,0,0,0,.24.09"/><path class="cls-33" d="M276.44,340.86v1.64a2.64,2.64,0,0,1-.29-.15,1,1,0,0,1-.6-.84v-1.63a1,1,0,0,0,.6.84,1.38,1.38,0,0,0,.3.14"/></g></g></g></g><g class="cls-3"><path class="cls-33" d="M252.56,313.79v1.63a2.59,2.59,0,0,0-.05-.47,6.68,6.68,0,0,0-1.11-2.4,19.09,19.09,0,0,0-6.15-5.34l-.64-.36c-2.5-1.36-5.54-2.88-9.1-2.48-4.39.49-7.24,3.9-8.61,6.1a3.55,3.55,0,0,0-.51,1.79v-1.63a3.36,3.36,0,0,1,.51-1.79c1.37-2.2,4.21-5.61,8.61-6.1,3.56-.4,6.59,1.12,9.1,2.48l.64.36a18.93,18.93,0,0,1,6.14,5.34,6.68,6.68,0,0,1,1.11,2.4A2.59,2.59,0,0,1,252.56,313.79Z"/><path class="cls-33" d="M282.26,329v1.63c0-1.78-2.33-3.31-4.44-4.6l-.61-.36A33.68,33.68,0,0,0,268,322.1a26.37,26.37,0,0,0-4.16-.64c-5.91-.4-9.59,4-9.6,7.1v-1.63c0-3.15,3.69-7.5,9.6-7.1a26.42,26.42,0,0,1,4.15.64,33.62,33.62,0,0,1,9.26,3.54l.61.36C279.93,325.66,282.26,327.19,282.26,329Z"/><path class="cls-73" d="M282.25,330.6a2.16,2.16,0,0,1-.1.66v-1.63a2.17,2.17,0,0,0,.11-.66Z"/><g class="cls-74"><path class="cls-75" d="M252.51,313.32c.82,3.83-8.63,6.06-14,5.52-.65-.07-1.27-.21-1.91-.29a15,15,0,0,1-5.54-1.88c-3.58-2.07-5.68-5.34-4.14-7.83,1.37-2.2,4.21-5.61,8.61-6.1,3.56-.4,6.59,1.12,9.1,2.48l.64.36a18.93,18.93,0,0,1,6.14,5.34A6.68,6.68,0,0,1,252.51,313.32Z"/></g><g class="cls-76"><path class="cls-77" d="M282.15,329.63c-.82,2.54-6.69,4.21-10.5,5a21.25,21.25,0,0,1-13.54-2.37,7.21,7.21,0,0,1-3.26-3.19c-.14-.37-.39-.73-.51-1.1-1-3.12,2.86-8.6,9.46-8.15a26.42,26.42,0,0,1,4.15.64,33.62,33.62,0,0,1,9.26,3.54l.61.36C280.18,325.81,282.83,327.56,282.15,329.63Z"/></g><path class="cls-1" d="M277.82,324.37l-.61-.36a33.62,33.62,0,0,0-9.26-3.54,26.42,26.42,0,0,0-4.15-.64c-6.6-.45-10.42,5-9.46,8.15.12.37.37.73.51,1.1a7.21,7.21,0,0,0,3.26,3.19,21.25,21.25,0,0,0,13.54,2.37c3.81-.8,9.68-2.47,10.5-5C282.83,327.56,280.18,325.81,277.82,324.37Z"/><path class="cls-1" d="M251.4,310.92a18.93,18.93,0,0,0-6.14-5.34l-.64-.36c-2.51-1.36-5.54-2.88-9.1-2.48-4.4.49-7.24,3.9-8.61,6.1-1.54,2.49.56,5.76,4.14,7.83a15.09,15.09,0,0,0,5.54,1.88c.64.08,1.26.22,1.91.29,5.38.54,14.83-1.69,14-5.52A6.68,6.68,0,0,0,251.4,310.92Z"/><path class="cls-1" d="M251.4,310.92a18.93,18.93,0,0,0-6.14-5.34l-.64-.36c-2.51-1.36-5.54-2.88-9.1-2.48-4.4.49-7.24,3.9-8.61,6.1-1.54,2.49.56,5.76,4.14,7.83a15.09,15.09,0,0,0,5.54,1.88c.64.08,1.26.22,1.91.29,5.38.54,14.83-1.69,14-5.52A6.68,6.68,0,0,0,251.4,310.92Z"/><path class="cls-1" d="M277.82,324.37l-.61-.36a33.62,33.62,0,0,0-9.26-3.54,26.42,26.42,0,0,0-4.15-.64c-6.6-.45-10.42,5-9.46,8.15.12.37.37.73.51,1.1a7.21,7.21,0,0,0,3.26,3.19,21.25,21.25,0,0,0,13.54,2.37c3.81-.8,9.68-2.47,10.5-5C282.83,327.56,280.18,325.81,277.82,324.37Z"/><path class="cls-33" d="M288.69,330.24c0-.17-.13-.35-.42-.59-.87-.73-1.76-1.45-2.69-2.15a69.73,69.73,0,0,0-7.25-5,27.86,27.86,0,0,0-8-3.23c-.81-.18-1.65-.32-2.49-.45l-4-.59a5.35,5.35,0,0,1-2.68-.85L259,316.11l-2.22-1.29c-.74-.43-1.42-.89-1.51-1.62-.33-.74-.64-1.49-1-2.23a11.21,11.21,0,0,0-.78-1.44,16.63,16.63,0,0,0-5.57-4.58,86.31,86.31,0,0,0-8.71-4.2c-1.22-.54-2.47-1.05-3.73-1.56a2,2,0,0,0-2,.08c-.49.27-3.64,2.11-3.71,2.76a.42.42,0,0,1-.13.23c-.44.49-.88,1-1.34,1.47a25.39,25.39,0,0,0-3.12,3.63,5.31,5.31,0,0,0-.9,3.56c0-.21,0-.41,0-.62v1.63a5.69,5.69,0,0,0,2.1,4.12,17.47,17.47,0,0,0,3.18,2.32,25,25,0,0,0,4.89,2.12,19.64,19.64,0,0,0,7.14.92,30.58,30.58,0,0,0,5.32-.75c1.83-.42,3.61-.9,5.41-1.36a3.91,3.91,0,0,1,2.42.07c.29.12.58.25.85.39s.46.32.66.48c-.73,1-1.49,1.94-2.17,2.92a7.53,7.53,0,0,0-1.26,3.09,3.92,3.92,0,0,0,0,1.08,3.59,3.59,0,0,1,0-.47v1.63a5,5,0,0,0,1.67,3.53,16.87,16.87,0,0,0,3.66,2.81,24.35,24.35,0,0,0,4,1.83,22.08,22.08,0,0,0,12.19.64,62,62,0,0,0,6.24-1.83l2.55-.78a1.68,1.68,0,0,1,.39-.07c1.13,0,4.28-1.88,4.74-2.17s.55-.4.55-.59v-1.63Zm-50.19-11.4c-.65-.07-1.27-.21-1.91-.29a15.09,15.09,0,0,1-5.54-1.88c-3.58-2.07-5.68-5.34-4.14-7.83,1.37-2.2,4.21-5.61,8.61-6.1,3.56-.4,6.59,1.12,9.1,2.48l.64.36a18.93,18.93,0,0,1,6.14,5.34,6.68,6.68,0,0,1,1.11,2.4C253.33,317.15,243.88,319.38,238.5,318.84Zm43.65,10.79c-.82,2.54-6.69,4.21-10.5,5a21.25,21.25,0,0,1-13.54-2.37,7.21,7.21,0,0,1-3.26-3.19c-.14-.37-.39-.73-.51-1.1-1-3.12,2.86-8.6,9.46-8.15a26.42,26.42,0,0,1,4.15.64,33.62,33.62,0,0,1,9.26,3.54l.61.36C280.18,325.81,282.83,327.56,282.15,329.63Z"/></g><path class="cls-70" d="M288.27,329.65c-.87-.73-1.76-1.45-2.69-2.15a69.73,69.73,0,0,0-7.25-5,27.86,27.86,0,0,0-8-3.23c-.81-.18-1.65-.32-2.49-.45l-4-.59a5.35,5.35,0,0,1-2.68-.85L259,316.11l-2.22-1.29c-.74-.43-1.42-.89-1.51-1.62-.33-.74-.64-1.49-1-2.23a11.21,11.21,0,0,0-.78-1.44,16.63,16.63,0,0,0-5.57-4.58,86.31,86.31,0,0,0-8.71-4.2c-1.22-.54-2.47-1.05-3.73-1.56a2,2,0,0,0-2,.08c-.49.27-3.64,2.11-3.71,2.76a.42.42,0,0,1-.13.23c-.44.49-.88,1-1.34,1.47a25.39,25.39,0,0,0-3.12,3.63,5.31,5.31,0,0,0-.9,3.56l0,.13a3.56,3.56,0,0,0,.2.76.06.06,0,0,0,0,0,4.59,4.59,0,0,0,.37.78s0,.09.08.14a6.89,6.89,0,0,0,.53.75l.11.13a10.34,10.34,0,0,0,.73.77h0a17.39,17.39,0,0,0,3.17,2.32l.56.3a24.93,24.93,0,0,0,4.33,1.82,19.67,19.67,0,0,0,7.14.92c.92,0,1.83-.14,2.72-.26s1.76-.29,2.61-.49c1.82-.42,3.61-.9,5.41-1.37a4.78,4.78,0,0,1,1.24-.15,3.34,3.34,0,0,1,1.17.23c.29.12.59.25.85.39a6.3,6.3,0,0,1,.68.5h0a1.31,1.31,0,0,1,.3.34s0,.09,0,.13a2.1,2.1,0,0,1,.06.24,1.1,1.1,0,0,1-.26.68c-.05.08-.11.15-.16.22-.73,1-1.49,1.94-2.17,2.92a7.53,7.53,0,0,0-1.26,3.09,4.81,4.81,0,0,0,1.62,4.14,17,17,0,0,0,3.66,2.8,23.92,23.92,0,0,0,4,1.84,22.09,22.09,0,0,0,12.19.64,63,63,0,0,0,6.25-1.83l2.54-.78a1.68,1.68,0,0,1,.39-.07c1.13,0,4.29-1.88,4.75-2.17C288.84,330.39,288.87,330.14,288.27,329.65ZM238.5,318.84c-.65-.07-1.27-.21-1.91-.29a15.09,15.09,0,0,1-5.54-1.88c-3.58-2.07-5.68-5.34-4.14-7.83,1.37-2.2,4.21-5.61,8.61-6.1,3.56-.4,6.59,1.12,9.1,2.48l.64.36a18.93,18.93,0,0,1,6.14,5.34,6.68,6.68,0,0,1,1.11,2.4C253.33,317.15,243.88,319.38,238.5,318.84Zm43.65,10.79c-.82,2.54-6.69,4.21-10.5,5a21.25,21.25,0,0,1-13.54-2.37,7.21,7.21,0,0,1-3.26-3.19c-.14-.37-.39-.73-.51-1.1-1-3.12,2.86-8.6,9.46-8.15a26.42,26.42,0,0,1,4.15.64,33.62,33.62,0,0,1,9.26,3.54l.61.36C280.18,325.81,282.83,327.56,282.15,329.63Z"/><path class="cls-6" d="M357.81,242.39a6.23,6.23,0,0,1,1.32-3.06c2.48,2.43,2.53,8.84,3.1,13a23,23,0,0,0,6.31,4,.45.45,0,0,1,.25.5,5.3,5.3,0,0,1-.89,2c-2.45-1.05-5.1-1.21-8.15-4.12-.12-.11-.3-.14-.35-.3C358.52,251.82,357.55,244.3,357.81,242.39Z"/><path class="cls-5" d="M367.23,290c1,.85,3,.41,3.06.48a36.32,36.32,0,0,0,3.44,2.87c.65.51,1.66,1.19,1.48,2.17-.33,1.76-3.14,1.22-4.2.68s-1.93-1.42-2.93-2.05c-.71-.44-1.42-.67-1.53-1.57A6.09,6.09,0,0,1,367.23,290Z"/><path class="cls-78" d="M366.56,292.18c.14.87.84,1.1,1.55,1.55,1,.63,1.91,1.54,3,2.08s3.43,1,4.11-.27c-.37,1.7-3.13,1.16-4.18.63s-1.93-1.42-2.93-2.05c-.71-.44-1.42-.67-1.53-1.57A2.45,2.45,0,0,1,366.56,292.18Z"/><path class="cls-78" d="M371.44,293.42a2,2,0,0,1,1.39-.79.34.34,0,0,1,.38.29,2.57,2.57,0,0,0-1.48.79C371.56,293.9,371.28,293.62,371.44,293.42Z"/><path class="cls-78" d="M370.65,292.8A2,2,0,0,1,372,292a.35.35,0,0,1,.38.3,2.61,2.61,0,0,0-1.48.78C370.77,293.28,370.49,293,370.65,292.8Z"/><path class="cls-78" d="M369.87,292.17a2,2,0,0,1,1.39-.8.36.36,0,0,1,.38.3,2.62,2.62,0,0,0-1.49.79C370,292.65,369.7,292.37,369.87,292.17Z"/><path class="cls-33" d="M353.13,259.88a15.15,15.15,0,0,0,8.17-1.19c-.05.87-.09,1.64-.09,1.64,3.32,2.35,10,6.31,10.43,9-.44,8.62-.95,20.76-1.26,21a2.86,2.86,0,0,1-3.33-.15,62.66,62.66,0,0,1-1.28-17.86s-11.63-5.15-12.39-8a8.78,8.78,0,0,1-.32-3.5C353.07,260.56,353.09,260.22,353.13,259.88Z"/><path class="cls-5" d="M362.56,292.88c1,.85,3,.41,3.06.49a36.22,36.22,0,0,0,3.44,2.86c.65.52,1.66,1.2,1.48,2.18-.33,1.75-3.14,1.21-4.2.68s-1.92-1.43-2.93-2c-.71-.45-1.42-.68-1.53-1.58A6.09,6.09,0,0,1,362.56,292.88Z"/><path class="cls-78" d="M361.9,295.1c.13.86.83,1.1,1.54,1.54,1,.63,1.92,1.55,3,2.08s3.43,1,4.11-.26c-.37,1.69-3.13,1.16-4.18.63s-1.92-1.43-2.93-2c-.71-.45-1.42-.68-1.53-1.58A1.61,1.61,0,0,1,361.9,295.1Z"/><path class="cls-78" d="M366.78,296.34a2,2,0,0,1,1.38-.8.34.34,0,0,1,.38.3,2.61,2.61,0,0,0-1.48.78C366.89,296.82,366.61,296.53,366.78,296.34Z"/><path class="cls-78" d="M366,295.71a2,2,0,0,1,1.38-.79.35.35,0,0,1,.38.29,2.69,2.69,0,0,0-1.48.79C366.1,296.2,365.82,295.91,366,295.71Z"/><path class="cls-78" d="M365.2,295.09a2,2,0,0,1,1.39-.8.35.35,0,0,1,.38.3,2.67,2.67,0,0,0-1.49.78C365.32,295.57,365,295.28,365.2,295.09Z"/><path class="cls-79" d="M349.68,259a12.48,12.48,0,0,0,7,.95c0,1.15-.16,3.32-.16,3.32,3.32,2.35,10,6.3,10.43,9-.44,8.63-1,20.76-1.26,21a2.89,2.89,0,0,1-3.33-.15,62.72,62.72,0,0,1-1.28-17.86c0-.21-10-5.11-11.23-6.41s-1.51-3.23-1.48-5.07A12.39,12.39,0,0,1,349.68,259Z"/><path class="cls-5" d="M347.55,244a6.22,6.22,0,0,1,1.79-3.59,9,9,0,0,1,4-2,6.5,6.5,0,0,1,4.33,0c2.14.8,2.64,2.86,2.87,4.92.07,0,1.17,16,1.17,16-1,1.74-6.59,4.3-12.82.75.24-.95.8-2.53,1.19-3.59a3.35,3.35,0,0,0,0-2.23C349.23,251.79,347.28,246,347.55,244Z"/><path class="cls-6" d="M347.55,244a6.26,6.26,0,0,1,1.32-3.07c2.48,2.43,2.53,8.85,3.1,13a43.16,43.16,0,0,0,5.95,4.79,5.18,5.18,0,0,1-1,2.41,21.3,21.3,0,0,1-7.47-4.75c-.12-.12-.3-.15-.35-.3C348.27,253.42,347.3,245.91,347.55,244Z"/><polygon class="cls-80" points="370.89 248.53 367.19 261.15 359.09 264.39 362.05 252.09 370.89 248.53"/><path class="cls-81" d="M357.14,259.32c.12-.43.43-.33.78-.22a2,2,0,0,0,1.2.1,3.72,3.72,0,0,0,.86-.58,1.13,1.13,0,0,1,.54-.15c0,.11-.19.75-.19.75s1.78,0,2,0a.3.3,0,0,1,.28.49h.12c.36-.09.52.47.16.55a1.57,1.57,0,0,1-.3,0c.24.09.29.48,0,.54h-.09a.25.25,0,0,1-.13,0h-.06a.32.32,0,0,1-.27.38c-.86.11-2.14.46-2.92-.26a4.75,4.75,0,0,1-1.57-.42C357,260.32,357,259.83,357.14,259.32Z"/><path class="cls-81" d="M366,258.28h.12a.3.3,0,0,1,.17-.54c.19,0,2-.39,2-.39l.22-.75s.31.15.32.16a1.22,1.22,0,0,1,.55.91,2,2,0,0,1-.52,1.42,1.83,1.83,0,0,1-1.24.53l-.63,0a.32.32,0,0,1-.34-.31h-.28c-.31,0-.33-.39-.12-.53l-.3,0C365.6,258.86,365.63,258.28,366,258.28Z"/><path class="cls-9" d="M360.76,243.47a2,2,0,0,1-.21-1.26h0a3,3,0,0,0-.21-1.44c-.31-.81-.86-1.46-1.2-2.24a5.71,5.71,0,0,1-.38-3.62h0a6.79,6.79,0,0,0-1.52,1.46,2.57,2.57,0,0,0-.64,1.63.13.13,0,0,0,0,.06c-.4.25-.77.4-.79,1,0,1,1,1.51,1.35,2.36a7.7,7.7,0,0,1,.32,2.3,7.72,7.72,0,0,0,1,3.52,2.74,2.74,0,0,0,2,1.23,1.83,1.83,0,0,0,2-1.17c.26-1.05-.53-2-1.06-2.79C361.24,244.2,361,243.85,360.76,243.47Z"/><path class="cls-81" d="M356.78,237.93s0,2.69,0,2.71c0,1.36-2.74.93-4.51-1.35V235A29.84,29.84,0,0,1,356.78,237.93Z"/><path class="cls-81" d="M351.46,227.23a4.13,4.13,0,0,1,3-.88,5.45,5.45,0,0,1,2.84,1.32,6.33,6.33,0,0,1,1.77,2.42,5.94,5.94,0,0,1,.31,3c-.45,3.86-2.45,5.32-3.09,5.57a4.16,4.16,0,0,1-3.36-1.75,11.35,11.35,0,0,0-2.16-2.52,1.66,1.66,0,0,1-.19-.18A5,5,0,0,1,351.46,227.23Z"/><path class="cls-9" d="M356.76,226.3a6.57,6.57,0,0,0-6.21,0,6.08,6.08,0,0,0-2.34,2.58,10.73,10.73,0,0,0-.69,1.64c-.36,1.11-.52,2.25-.83,3.37a12.38,12.38,0,0,1-1.49,3.49,6.86,6.86,0,0,0-1.43,3.25,3.64,3.64,0,0,0,.8,2.3,2.34,2.34,0,0,1,.43,2.32c-.3.75-.84,1.37-1.13,2.13a4.79,4.79,0,0,0-.26,2.57,4.15,4.15,0,0,0,2.34,3,2.25,2.25,0,0,0,1.05.21,2.39,2.39,0,0,0,1.34-.7c-.48-2.77-1.49-9.68.73-9.65,1.41,0,2,2.83,2.08,3.64.13,1.94-1.54,5.6.66,6.62a2.7,2.7,0,0,0,3.1-.71,3.38,3.38,0,0,0-.44-3.78c-.79-1.06-1.81-1.62-1.49-3.2.16-.83.54-1.61.69-2.44a3.44,3.44,0,0,0-.1-2,6.85,6.85,0,0,0-1-1.39,4.18,4.18,0,0,0,.4-2.12,6.37,6.37,0,0,0-.39-1.78c0-.11-.19-.69-.33-.73-.48-.13-1.06-.57-.79-1.11s1.06-.25,1.22.26l.06,0c1.53-.88,3.06-1.88,3.49-3.7a.28.28,0,0,0,0-.13c1.33.33,3.59.52,3.13,3A5.78,5.78,0,0,0,356.76,226.3Z"/><path class="cls-79" d="M361.72,118.9a6.28,6.28,0,0,0-1.33-3.06c-2.48,2.43-2.53,8.85-3.09,13a22.8,22.8,0,0,1-6.32,4,.46.46,0,0,0-.25.5,5.28,5.28,0,0,0,.9,2c2.44-1.06,5.09-1.22,8.15-4.13.12-.11.29-.14.35-.3C361,128.33,362,120.82,361.72,118.9Z"/><path class="cls-79" d="M352.29,166.48c-1,.85-3,.41-3.06.49a36.22,36.22,0,0,1-3.44,2.86c-.65.51-1.66,1.2-1.48,2.18.33,1.75,3.14,1.21,4.2.68s1.93-1.43,2.93-2.05c.72-.45,1.42-.68,1.53-1.58A6,6,0,0,0,352.29,166.48Z"/><path class="cls-78" d="M353,168.69c-.14.87-.83,1.11-1.54,1.55-1,.63-1.92,1.55-3,2.08s-3.42,1-4.11-.26c.37,1.69,3.13,1.16,4.18.63s1.93-1.43,2.93-2.05c.72-.45,1.42-.68,1.53-1.58A1.59,1.59,0,0,0,353,168.69Z"/><path class="cls-78" d="M348.08,169.93a2,2,0,0,0-1.39-.79.35.35,0,0,0-.38.29,2.69,2.69,0,0,1,1.48.79C348,170.42,348.24,170.13,348.08,169.93Z"/><path class="cls-78" d="M348.87,169.31a2,2,0,0,0-1.39-.79.34.34,0,0,0-.38.29,2.57,2.57,0,0,1,1.48.79C348.75,169.8,349,169.51,348.87,169.31Z"/><path class="cls-78" d="M349.65,168.68a2,2,0,0,0-1.39-.79.33.33,0,0,0-.37.29,2.62,2.62,0,0,1,1.48.79C349.54,169.17,349.82,168.88,349.65,168.68Z"/><path class="cls-5" d="M366.39,136.39a15.19,15.19,0,0,1-8.16-1.18c0,.86.09,1.64.09,1.64-3.33,2.34-10,6.3-10.43,9,.43,8.62.94,20.76,1.25,21a2.88,2.88,0,0,0,3.34-.15,62.92,62.92,0,0,0,1.27-17.86s11.64-5.15,12.39-8a14.38,14.38,0,0,0,.25-4.54Z"/><path class="cls-79" d="M357,169.4c-1,.84-3,.4-3.06.48a37.9,37.9,0,0,1-3.44,2.87c-.65.51-1.66,1.19-1.48,2.17.33,1.76,3.14,1.22,4.2.68s1.93-1.43,2.93-2c.71-.44,1.42-.67,1.53-1.58A6,6,0,0,0,357,169.4Z"/><path class="cls-78" d="M357.63,171.61c-.14.86-.84,1.1-1.55,1.54-1,.64-1.91,1.55-3,2.09s-3.42,1-4.11-.27c.37,1.69,3.13,1.16,4.18.63s1.93-1.43,2.93-2c.71-.44,1.42-.67,1.53-1.58A2.35,2.35,0,0,0,357.63,171.61Z"/><path class="cls-78" d="M352.75,172.85a2,2,0,0,0-1.39-.8.35.35,0,0,0-.38.3,2.61,2.61,0,0,1,1.48.78C352.63,173.33,352.91,173.05,352.75,172.85Z"/><path class="cls-78" d="M353.54,172.23a2,2,0,0,0-1.39-.8.34.34,0,0,0-.38.3,2.61,2.61,0,0,1,1.48.78C353.42,172.71,353.7,172.42,353.54,172.23Z"/><path class="cls-78" d="M354.32,171.6a2,2,0,0,0-1.39-.8.36.36,0,0,0-.38.3,2.64,2.64,0,0,1,1.49.78C354.2,172.08,354.49,171.8,354.32,171.6Z"/><path class="cls-6" d="M369.84,135.5a12.48,12.48,0,0,1-7,.94c0,1.15.17,3.32.17,3.32-3.33,2.35-10,6.31-10.44,9,.44,8.62.95,20.75,1.26,21a2.87,2.87,0,0,0,3.33-.15,62.66,62.66,0,0,0,1.28-17.86c0-.2,10-5.11,11.23-6.41s1.52-3.23,1.48-5.06A12.3,12.3,0,0,0,369.84,135.5Z"/><path class="cls-33" d="M372,120.51a6.27,6.27,0,0,0-1.78-3.59,9,9,0,0,0-4-2,6.59,6.59,0,0,0-4.34,0c-2.14.8-2.64,2.86-2.87,4.92-.06.06-1.17,16-1.17,16,1,1.74,6.6,4.3,12.83.75-.24-.94-.8-2.53-1.2-3.59a3.35,3.35,0,0,1,0-2.23C370.29,128.3,372.24,122.52,372,120.51Z"/><path class="cls-79" d="M372,120.51a6.3,6.3,0,0,0-1.32-3.07c-2.48,2.43-2.53,8.85-3.1,13a42.91,42.91,0,0,1-5.94,4.8,5.07,5.07,0,0,0,.95,2.4,20.84,20.84,0,0,0,7.47-4.75c.12-.11.3-.14.35-.3C371.26,129.94,372.23,122.42,372,120.51Z"/><polygon class="cls-14" points="348.63 125.04 352.33 137.66 360.43 140.9 357.47 128.6 348.63 125.04"/><path class="cls-81" d="M362.38,135.83c-.12-.43-.43-.32-.78-.22a2.06,2.06,0,0,1-1.2.11,4.06,4.06,0,0,1-.86-.58A1.07,1.07,0,0,0,359,135c0,.11.19.75.19.75s-1.78,0-2,0a.3.3,0,0,0-.28.5l-.12,0c-.36-.08-.52.48-.15.56l.29,0c-.23.09-.29.49,0,.54l.09,0,.13,0h.06a.32.32,0,0,0,.27.38c.86.11,2.14.46,2.92-.26a4.87,4.87,0,0,0,1.58-.42C362.52,136.83,362.53,136.35,362.38,135.83Z"/><path class="cls-81" d="M353.52,134.8h-.12a.3.3,0,0,0-.17-.54c-.19,0-2-.38-2-.38l-.22-.75c0-.05-.32.15-.33.15a1.25,1.25,0,0,0-.55.92,2,2,0,0,0,.52,1.41,1.87,1.87,0,0,0,1.24.53l.63.05a.33.33,0,0,0,.34-.32h.28c.31,0,.33-.38.12-.52l.3,0C353.93,135.37,353.89,134.79,353.52,134.8Z"/><path class="cls-10" d="M360.6,114.4a6.5,6.5,0,0,0,2.83,2.1,1.51,1.51,0,0,0,.27-.89c0-.65-.39-.8-.78-1v0a2.57,2.57,0,0,0-.64-1.64,6.79,6.79,0,0,0-1.52-1.46h0A5.37,5.37,0,0,1,360.6,114.4Z"/><path class="cls-81" d="M362.74,114.44s0,2.69,0,2.72c0,1.36,2.74.92,4.51-1.36v-4.31A29.84,29.84,0,0,0,362.74,114.44Z"/><path class="cls-81" d="M368.06,103.74a4.13,4.13,0,0,0-3-.88,5.52,5.52,0,0,0-2.84,1.32,6.37,6.37,0,0,0-1.77,2.43,5.92,5.92,0,0,0-.31,3c.45,3.86,2.45,5.31,3.1,5.56a4.15,4.15,0,0,0,3.35-1.75,11.35,11.35,0,0,1,2.17-2.52c.06-.06.13-.11.18-.17A5,5,0,0,0,368.06,103.74Z"/><path class="cls-10" d="M366.75,110.72l.07,0c.16-.5.92-.85,1.21-.26s-.31,1-.79,1.12c-.13,0-.29.62-.33.73a6.67,6.67,0,0,0-.39,1.77,12.23,12.23,0,0,0,.45,3.15,9.16,9.16,0,0,0,6.71-3.49,13.66,13.66,0,0,1-1.36-4.36,11.62,11.62,0,0,0-1-3.93,6.08,6.08,0,0,0-2.35-2.57,6.57,6.57,0,0,0-6.21,0,5.79,5.79,0,0,0-2.63,7c-.46-2.44,1.8-2.62,3.13-3a.3.3,0,0,0,0,.13C363.69,108.85,365.22,109.84,366.75,110.72Z"/><path class="cls-8" d="M200.39,305.45s-.39,9.61-.89,10.52c-1.17,2.13-4.22,5.47-4.31,5.89a2,2,0,0,0,2,2.4c.73-.09,6.24-3.42,6.24-3.42C203.7,319,200.47,305.38,200.39,305.45Z"/><path class="cls-9" d="M207.46,362.19c-1,.8-2.83.39-2.91.46a34,34,0,0,1-3.26,2.72c-.62.49-1.58,1.13-1.4,2.06.31,1.67,3,1.16,4,.65s1.83-1.36,2.78-1.95c.68-.42,1.35-.64,1.45-1.49A5.76,5.76,0,0,0,207.46,362.19Z"/><path class="cls-78" d="M208.09,364.29c-.13.82-.79,1-1.46,1.47-1,.6-1.82,1.46-2.83,2s-3.25.94-3.9-.25c.36,1.61,3,1.1,4,.6s1.83-1.36,2.78-1.95c.68-.42,1.35-.64,1.45-1.49A1.42,1.42,0,0,0,208.09,364.29Z"/><path class="cls-78" d="M203.46,365.47a1.88,1.88,0,0,0-1.32-.76.33.33,0,0,0-.36.28,2.47,2.47,0,0,1,1.41.75C203.35,365.93,203.62,365.65,203.46,365.47Z"/><path class="cls-78" d="M204.21,364.88a1.88,1.88,0,0,0-1.32-.76.33.33,0,0,0-.36.28,2.47,2.47,0,0,1,1.41.75C204.1,365.34,204.37,365.06,204.21,364.88Z"/><path class="cls-78" d="M205,364.28a1.9,1.9,0,0,0-1.31-.76.33.33,0,0,0-.36.29,2.49,2.49,0,0,1,1.4.74C204.84,364.74,205.11,364.47,205,364.28Z"/><path class="cls-9" d="M211,352c-.38,1.22-2.14,1.89-2.16,2a38.11,38.11,0,0,1-1.22,4.07c-.25.74-.69,1.81,0,2.49,1.17,1.22,3.11-.68,3.67-1.66s.78-2.14,1.25-3.15c.33-.73.76-1.28.38-2.06C212.69,353.21,211.17,351.88,211,352Z"/><path class="cls-78" d="M212.72,353.39c.34.76-.08,1.31-.41,2-.48,1-.71,2.23-1.27,3.21s-2.19,2.58-3.39,1.95c1.19,1.14,3.09-.73,3.64-1.7s.78-2.14,1.25-3.15c.33-.73.76-1.28.38-2.06A2.23,2.23,0,0,0,212.72,353.39Z"/><path class="cls-78" d="M209.51,356.93a1.91,1.91,0,0,0-1.52.1.32.32,0,0,0-.14.43,2.46,2.46,0,0,1,1.58-.15C209.67,357.38,209.74,357,209.51,356.93Z"/><path class="cls-78" d="M209.81,356a1.91,1.91,0,0,0-1.52.09.33.33,0,0,0-.14.44,2.45,2.45,0,0,1,1.58-.16C210,356.47,210,356.1,209.81,356Z"/><path class="cls-78" d="M210.1,355.12a1.91,1.91,0,0,0-1.52.09.33.33,0,0,0-.14.44,2.47,2.47,0,0,1,1.58-.16C210.26,355.56,210.33,355.19,210.1,355.12Z"/><path class="cls-33" d="M212,352.53c-.28-.84-1.64-6.86-9.8-15.08,0,0,2.87-6.88,3.59-9.55a52.17,52.17,0,0,0,1.31-6.4c-1.38.15-5.67-1.16-6.65-1.8-.71,2.54-3.79,17.37-3.06,20,5.65,8,10.89,14.76,11.18,15C208.74,354.87,211.68,353.58,212,352.53Z"/><path class="cls-79" d="M213,326.35c0-2-.63-3.87-.79-5.83a27.66,27.66,0,0,1-7.1,1.57c-.11,2.28.28,7,.28,7-.66,2.11-2.9,11.6-2.15,14.33.85,7.87,1,18.91,1.27,19.16a2.73,2.73,0,0,0,3.16-.14s2.71-11.61.37-21.31c0,0,3.61-7.39,4.33-10.06A16.8,16.8,0,0,0,213,326.35Z"/><path class="cls-9" d="M213.76,305.74a6,6,0,0,0-1.7-3.4,8.41,8.41,0,0,0-3.8-1.91,8.2,8.2,0,0,0-4.34-.13,4.4,4.4,0,0,0-3.5,3.76c-.06,0-.11,16.21-.11,16.21.92,1.66,6.26,4.08,12.17.71-.23-.89-.76-2.4-1.13-3.41a3.12,3.12,0,0,1,0-2.11C212.16,313.14,214,307.65,213.76,305.74Z"/><path class="cls-8" d="M213.7,305.47a6,6,0,0,0-1.59-2.74c-2,2.55-1.5,10.82-1.3,11.6l-8.19,4.56c-.16.09.49,2,1.36,1.9a65.58,65.58,0,0,0,8.72-3.86C213.12,316.42,214.14,307.18,213.7,305.47Z"/><path class="cls-82" d="M203.3,298a3.76,3.76,0,0,0,1.89,3h0a1.07,1.07,0,0,0,.07-.19c.41-1.39-2-3.21-2-3.18S203.29,297.89,203.3,298Z"/><path class="cls-81" d="M205,300s0,2.55,0,2.57c0,1.29,2.6.88,4.28-1.29v-4.09A28.36,28.36,0,0,0,205,300Z"/><path class="cls-81" d="M210.05,289.83a3.93,3.93,0,0,0-2.89-.84,5.2,5.2,0,0,0-2.7,1.26,6,6,0,0,0-1.68,2.3,5.8,5.8,0,0,0-.29,2.83c.43,3.66,2.33,5,2.94,5.28a4,4,0,0,0,3.18-1.66,11,11,0,0,1,2.06-2.4l.18-.16A4.72,4.72,0,0,0,210.05,289.83Z"/><path class="cls-82" d="M217.37,290.43a4.91,4.91,0,0,0-3.32-2.82,4.2,4.2,0,0,0-4,1,6.17,6.17,0,0,0-5,.31,5.49,5.49,0,0,0-2.5,6.69c-.44-2.32,1.71-2.49,3-2.81a.24.24,0,0,0,0,.12c.4,1.73,1.86,2.68,3.31,3.51h0c.13-.5.88-.86,1.17-.28s-.29.93-.75,1.06c-.08.06-.69,2.43,0,3.42a4.19,4.19,0,0,0,2.4-1.3,5.46,5.46,0,0,0,4,3.45C211.61,297.93,218.71,294,217.37,290.43Z"/><path class="cls-81" d="M203,318.77a9.7,9.7,0,0,1-2.94,1c-.73,0-1.17,1-1.95,1.08a.3.3,0,0,0-.22.5c.29.31,1.13.12,1.73-.51,0,0,0,0,0,0a.6.6,0,0,0,.28.53.43.43,0,0,0,.13.05.25.25,0,0,0,0,.14.56.56,0,0,0,.41.34h0a.54.54,0,0,0,.57.42.66.66,0,0,0,.44-.17,3,3,0,0,0,1.4-1,7.13,7.13,0,0,0,.84-1C204,319.71,203.73,318.26,203,318.77Z"/><g class="cls-3"><polygon class="cls-2" points="187.91 326.93 197.3 321.48 204.04 325.37 194.65 330.82 187.91 326.93"/><g class="cls-83"><polyline class="cls-84" points="204.04 325.37 197.3 321.48 187.91 326.93 194.65 330.82 204.04 325.37"/></g></g><path class="cls-1" d="M197.43,324.18h0v-.05h0a.07.07,0,0,0,0-.05h0a.43.43,0,0,0,0-.05v0l0,0v0l0,0,0,0,0,0,0,0,0,0,0,0,0,0-.08-.05h0a1.67,1.67,0,0,0-1.51,0,.46.46,0,0,0,0,.88,1.65,1.65,0,0,0,1.53,0h0A.55.55,0,0,0,197.43,324.18Z"/><path class="cls-9" d="M197.48,324.76l-.34-.2h0a1.65,1.65,0,0,1-1.53,0,.46.46,0,0,1,0-.88,1.67,1.67,0,0,1,1.51,0l.35-.21a2.49,2.49,0,0,0-2.21,0,.67.67,0,0,0,0,1.28,2.42,2.42,0,0,0,2.22,0Z"/><path class="cls-85" d="M197.77,324.52l0,0Z"/><path class="cls-85" d="M197.67,324.63l0,0Z"/><path class="cls-85" d="M197.72,324.57l0,0Z"/><path class="cls-85" d="M197.81,324.47l0,0Z"/><path class="cls-85" d="M197.55,324.72l-.05,0Z"/><path class="cls-85" d="M197.61,324.67l0,0Z"/><path class="cls-85" d="M197.84,324.42v0Z"/><path class="cls-18" d="M197.11,323.69l.08.05,0,0,0,0,0,0,0,0,0,0,0,0,0,0v0l0,0v0a.43.43,0,0,1,0,.05h0a.07.07,0,0,1,0,.05h0v.05h0a.55.55,0,0,1-.29.38l.34.2h0l.05,0h0l0,0h0l0,0,0,0,0,0h0l0,0,0,0,0,0,0,0v0l0-.06h0a.09.09,0,0,1,0-.05h0a.08.08,0,0,1,0,0h0v0h0v0h0v0h0v0h0v0h0v0h0l0,0h0l0,0h0l0,0v0l0,0v0l0,0v0l0,0,0,0,0,0,0,0,0,0,0,0h0l0,0h0l0,0,0,0,0,0h0l-.35.21Z"/><path class="cls-1" d="M200.35,325.72h0v-.06h0v-.06h0a.06.06,0,0,0,0,0v-.06l0,0s0,0,0,0l0,0,0,0,0,0,0,0,0,0h0l-.08,0h0a1.71,1.71,0,0,0-1.51,0,.46.46,0,0,0,0,.88,1.65,1.65,0,0,0,1.53,0h0A.57.57,0,0,0,200.35,325.72Z"/><path class="cls-9" d="M200.41,326.3l-.35-.2h0a1.65,1.65,0,0,1-1.53,0,.46.46,0,0,1,0-.88,1.71,1.71,0,0,1,1.51,0l.35-.2a2.46,2.46,0,0,0-2.21,0,.68.68,0,0,0,0,1.28,2.42,2.42,0,0,0,2.22,0Z"/><path class="cls-85" d="M200.69,326.06l0,0Z"/><path class="cls-85" d="M200.59,326.16l0,0Z"/><path class="cls-85" d="M200.65,326.11l0,0Z"/><path class="cls-85" d="M200.73,326l0,0Z"/><path class="cls-85" d="M200.47,326.26l-.05,0Z"/><path class="cls-85" d="M200.54,326.21l0,0Z"/><path class="cls-85" d="M200.77,326l0,0Z"/><path class="cls-18" d="M200,325.23l.08,0h0l0,0,0,0,0,0,0,0,0,0s0,0,0,0l0,0v.06a.06.06,0,0,1,0,0h0v.06h0v.06h0a.57.57,0,0,1-.29.38l.35.2h0l.05,0,0,0,0,0h0l0,0h0l0,0v0l0,0,0,0,0,0,0,0,0,0a.08.08,0,0,0,0-.05h0s0,0,0,0h0a.06.06,0,0,1,0,0h0v0h0v0h0v0h0v0h0v0h0v0h0l0,0h0l0,0h0l0,0v0l0,0v0l0,0v0l0,0,0,0,0,0,0,0,0,0,0,0,0,0,0,0h0l0,0h0l-.06,0h0l-.35.2Z"/><polygon class="cls-18" points="191.18 327.24 190.78 327.01 190.38 327.24 190.78 327.47 191.18 327.24"/><polygon class="cls-18" points="191.36 327.34 190.96 327.57 194.16 329.42 194.55 329.19 191.36 327.34"/><polygon class="cls-18" points="191.54 326.13 191.18 325.92 190.82 326.13 191.18 326.33 191.54 326.13"/><polygon class="cls-18" points="191.7 326.22 191.34 326.43 195.86 329.02 196.22 328.81 191.7 326.22"/><polygon class="cls-18" points="192.17 325.73 191.81 325.52 191.46 325.73 191.82 325.93 192.17 325.73"/><polygon class="cls-18" points="192.33 325.82 191.98 326.03 196.5 328.62 196.85 328.41 192.33 325.82"/><polygon class="cls-18" points="192.8 325.36 192.44 325.15 192.09 325.36 192.45 325.56 192.8 325.36"/><polygon class="cls-18" points="192.97 325.45 192.61 325.66 197.13 328.25 197.48 328.04 192.97 325.45"/><path class="cls-81" d="M196.09,321.88a4.06,4.06,0,0,0-1.67.54,3.62,3.62,0,0,1-.59.44l-.28.15a1,1,0,0,0-.38.24,1,1,0,0,0-.16.52,2.23,2.23,0,0,0,0,.68c.08.34.43.31.61.08a.75.75,0,0,0,.16-.41.91.91,0,0,1,.39-.72l2.25-1.39A.27.27,0,0,0,196.09,321.88Z"/><path class="cls-14" d="M75.8,199.91s.39,9.6.88,10.52c1.17,2.13,4.23,5.46,4.32,5.88a2,2,0,0,1-2,2.41c-.73-.09-6.23-3.42-6.23-3.42C72.48,213.46,75.71,199.83,75.8,199.91Z"/><path class="cls-14" d="M68.73,256.65c1,.8,2.83.39,2.9.46a35.45,35.45,0,0,0,3.27,2.72c.61.48,1.57,1.13,1.4,2.06-.31,1.67-3,1.16-4,.65s-1.83-1.36-2.78-2c-.68-.42-1.35-.64-1.46-1.5A5.74,5.74,0,0,1,68.73,256.65Z"/><path class="cls-78" d="M68.1,258.75c.13.82.79,1,1.46,1.46,1,.6,1.82,1.47,2.82,2s3.25.94,3.9-.25c-.35,1.6-3,1.1-4,.6s-1.83-1.36-2.78-2c-.68-.42-1.35-.64-1.46-1.5A1.44,1.44,0,0,1,68.1,258.75Z"/><path class="cls-78" d="M72.73,259.93a1.86,1.86,0,0,1,1.31-.76.32.32,0,0,1,.36.28,2.49,2.49,0,0,0-1.4.74C72.84,260.38,72.57,260.11,72.73,259.93Z"/><path class="cls-78" d="M72,259.33a1.89,1.89,0,0,1,1.32-.75.31.31,0,0,1,.35.28,2.49,2.49,0,0,0-1.4.74C72.09,259.79,71.82,259.52,72,259.33Z"/><path class="cls-78" d="M71.23,258.74a1.9,1.9,0,0,1,1.32-.76.33.33,0,0,1,.36.28,2.47,2.47,0,0,0-1.41.75C71.34,259.2,71.08,258.93,71.23,258.74Z"/><path class="cls-14" d="M65.16,246.45c.37,1.22,2.14,1.88,2.16,2a36.56,36.56,0,0,0,1.22,4.07c.25.74.69,1.81,0,2.49-1.18,1.22-3.12-.68-3.68-1.66s-.77-2.14-1.24-3.16c-.33-.72-.77-1.27-.38-2.05C63.5,247.66,65,246.34,65.16,246.45Z"/><path class="cls-78" d="M63.47,247.85c-.35.76.08,1.31.41,2,.47,1,.71,2.23,1.26,3.21s2.19,2.57,3.39,1.94c-1.18,1.15-3.08-.72-3.64-1.69s-.77-2.14-1.24-3.16c-.33-.72-.77-1.27-.38-2.05A1.51,1.51,0,0,1,63.47,247.85Z"/><path class="cls-78" d="M66.68,251.39a1.87,1.87,0,0,1,1.52.1.33.33,0,0,1,.14.43,2.56,2.56,0,0,0-1.59-.16C66.52,251.83,66.44,251.46,66.68,251.39Z"/><path class="cls-78" d="M66.38,250.48a1.91,1.91,0,0,1,1.52.1A.32.32,0,0,1,68,251a2.46,2.46,0,0,0-1.58-.15C66.22,250.93,66.15,250.55,66.38,250.48Z"/><path class="cls-78" d="M66.09,249.58a1.85,1.85,0,0,1,1.51.09.33.33,0,0,1,.15.43,2.49,2.49,0,0,0-1.59-.15C65.93,250,65.85,249.64,66.09,249.58Z"/><path class="cls-33" d="M64.17,247c.29-.85.35-6.91,8.51-15.12,0,0-1.58-6.84-2.3-9.52a51.74,51.74,0,0,1-1.3-6.39c1.38.15,5.66-1.17,6.64-1.8.72,2.53,2.15,17.76,1.41,20.43-5.64,8-9.23,14.37-9.52,14.64C67.45,249.33,64.51,248,64.17,247Z"/><path class="cls-79" d="M63.23,220.81c0-2,.63-3.87.79-5.83a27.86,27.86,0,0,0,7.1,1.56c.11,2.28-.29,7-.29,7,.67,2.12,2.91,11.61,2.16,14.34-.85,7.86-.49,18.76-.79,19-1,.84-3.66.44-4.13,0a65.87,65.87,0,0,1-1.21-20.69s-2.29-8-3-10.66A17.09,17.09,0,0,1,63.23,220.81Z"/><path class="cls-14" d="M63.77,196.92c2.62-1.8,7-2.12,8.5-2.16,2.12-.07,3.28,1.79,3.5,3.75.06.05,1.09,19.17,1.09,19.17-.91,1.65-8,5.17-13.94,1.8C63.14,218.58,62.71,198.7,63.77,196.92Z"/><path class="cls-15" d="M62.17,199.66a5.88,5.88,0,0,1,1.6-2.74c2,2.55,1.5,10.82,1.29,11.6l8.19,4.56c.17.09-.49,2-1.36,1.9a65.58,65.58,0,0,1-8.72-3.86C62.75,210.61,61.73,201.37,62.17,199.66Z"/><path class="cls-81" d="M71.19,194.44s0,2.55,0,2.58c0,1.29-2.6.88-4.28-1.29v-4.09A28.34,28.34,0,0,1,71.19,194.44Z"/><path class="cls-81" d="M66.14,184.28a4,4,0,0,1,2.89-.83,5.23,5.23,0,0,1,2.69,1.25A6,6,0,0,1,73.4,187a5.65,5.65,0,0,1,.3,2.82c-.43,3.67-2.33,5-2.94,5.29a3.94,3.94,0,0,1-3.18-1.67,11.22,11.22,0,0,0-2.06-2.39l-.18-.16A4.73,4.73,0,0,1,66.14,184.28Z"/><path class="cls-82" d="M75.56,184a1.28,1.28,0,0,0-1.89-.59,5.8,5.8,0,0,1-3.84,0,5.77,5.77,0,0,0-3.72.16c-3.56,1.57-4,7.76.78,10,0-1.06,0-1.9,0-1.9-.44.05-1.91-1.07-.66-1.73.31-.16,1.06.07,1.08.61,0,1.15.77,1.44.8.79,0-.27,0-.93,0-.93a6.14,6.14,0,0,0,2-1.9,8.8,8.8,0,0,0,3.24,0,2,2,0,0,1,.22,1.56,4.25,4.25,0,0,0,.35-1.73,2.36,2.36,0,0,0,1.49-1.3,1.16,1.16,0,0,0-.26-1.32A1.83,1.83,0,0,0,75.56,184Z"/><path class="cls-81" d="M73.18,213.23a9.6,9.6,0,0,0,2.94,1c.73,0,1.17,1,1.94,1.07a.3.3,0,0,1,.23.51c-.29.31-1.13.11-1.74-.51a.09.09,0,0,1,0,.05.63.63,0,0,1-.29.53l-.13.05a.25.25,0,0,1,0,.14.58.58,0,0,1-.41.34h0a.55.55,0,0,1-.57.42.68.68,0,0,1-.45-.17,3,3,0,0,1-1.39-1c-.23-.26-1.15-.59-1.32-.9C71.7,214.25,72.45,212.72,73.18,213.23Z"/><g class="cls-3"><polygon class="cls-2" points="88.27 221.39 78.89 215.94 72.15 219.82 81.54 225.28 88.27 221.39"/><g class="cls-86"><polyline class="cls-87" points="72.15 219.82 78.89 215.94 88.27 221.39 81.54 225.28 72.15 219.82"/></g></g><path class="cls-1" d="M78.76,218.64h0s0,0,0-.06h0v-.06h0s0,0,0,0v0s0,0,0,0v0l0,0,0,0s0,0,0,0l0,0,0,0a.08.08,0,0,1,0,0h0l.07,0h0a1.69,1.69,0,0,1,1.52,0,.46.46,0,0,1,0,.88,1.63,1.63,0,0,1-1.52,0h0A.54.54,0,0,1,78.76,218.64Z"/><path class="cls-18" d="M78.7,219.22l.35-.2h0a1.63,1.63,0,0,0,1.52,0,.46.46,0,0,0,0-.88,1.69,1.69,0,0,0-1.52,0l-.34-.2a2.44,2.44,0,0,1,2.2,0,.67.67,0,0,1,0,1.28,2.42,2.42,0,0,1-2.22,0Z"/><path class="cls-85" d="M78.42,219s0,0,0,0S78.42,219,78.42,219Z"/><path class="cls-85" d="M78.51,219.08s0,0,0,0S78.53,219.09,78.51,219.08Z"/><path class="cls-85" d="M78.46,219l0,0Z"/><path class="cls-85" d="M78.38,218.93l0,0Z"/><path class="cls-85" d="M78.64,219.18l0,0Z"/><path class="cls-85" d="M78.57,219.13l.05,0Z"/><path class="cls-85" d="M78.34,218.87l0,0Z"/><path class="cls-18" d="M79.07,218.15l-.07,0h0a.08.08,0,0,0,0,0l0,0,0,0s0,0,0,0l0,0,0,0v0s0,0,0,0v0s0,0,0,0h0v.06h0s0,0,0,.06h0a.54.54,0,0,0,.29.38l-.35.2h0l0,0,0,0-.05,0h0s0,0,0,0h0l0,0,0,0s0,0,0,0l0,0,0,0,0,0,0,0,0-.05h0s0,0,0,0h0s0,0,0,0h0v0h0v0h0v0h0v0h0v0h0v0h0v0h0v-.05l0,0v0l0,0v0l0,0,0,0,0,0,0,0,0,0,0,0,0,0,0,0,0,0h0l0,0h0l.06,0h0l.34.2Z"/><path class="cls-1" d="M75.84,220.18h0a.13.13,0,0,1,0-.06h0a.07.07,0,0,0,0-.05h0s0,0,0-.05h0s0,0,0,0v0l0,0v0l0,0,0,0,0,0,0,0,0,0,.07,0h0a1.66,1.66,0,0,1,1.52,0c.42.24.41.64,0,.88a1.69,1.69,0,0,1-1.52,0h0A.54.54,0,0,1,75.84,220.18Z"/><path class="cls-14" d="M75.78,220.76l.35-.2h0a1.69,1.69,0,0,0,1.52,0c.42-.24.43-.64,0-.88a1.66,1.66,0,0,0-1.52,0l-.34-.2a2.41,2.41,0,0,1,2.2,0,.68.68,0,0,1,0,1.28,2.48,2.48,0,0,1-2.22,0Z"/><path class="cls-85" d="M75.49,220.52l0,0Z"/><path class="cls-85" d="M75.59,220.62l0,0Z"/><path class="cls-85" d="M75.54,220.57l0,0Z"/><path class="cls-85" d="M75.45,220.47l0,0Z"/><path class="cls-85" d="M75.72,220.72l0,0Z"/><path class="cls-85" d="M75.65,220.67l0,0Z"/><path class="cls-85" d="M75.42,220.41l0,0Z"/><path class="cls-18" d="M76.15,219.69l-.07,0,0,0,0,0,0,0,0,0,0,0v0l0,0v0s0,0,0,0h0s0,0,0,.05h0a.07.07,0,0,1,0,.05h0a.13.13,0,0,0,0,.06h0a.54.54,0,0,0,.29.38l-.35.2h0l0,0,0,0,0,0,0,0,0,0,0,0,0,0,0,0,0,0v0l0,0v0l0,0,0,0h0a.06.06,0,0,1,0,0h0a.08.08,0,0,1,0,0h0v0h0a.06.06,0,0,1,0,0h0v0h0v0h0v0h0v0h0v0h0v-.05l0,0h0l0,0h0l0,0h0l0,0h0l0,0,0,0,0,0,0,0,0,0,0,0,0,0,0,0h0l.06,0h0l.34.2Z"/><polygon class="cls-18" points="85.01 221.7 85.41 221.47 85.8 221.7 85.4 221.93 85.01 221.7"/><polygon class="cls-18" points="84.83 221.8 85.22 222.03 82.03 223.88 81.63 223.65 84.83 221.8"/><polygon class="cls-18" points="84.65 220.58 85.01 220.38 85.36 220.58 85 220.79 84.65 220.58"/><polygon class="cls-18" points="84.49 220.68 84.84 220.88 80.32 223.48 79.97 223.27 84.49 220.68"/><polygon class="cls-18" points="84.01 220.18 84.37 219.98 84.73 220.18 84.37 220.39 84.01 220.18"/><polygon class="cls-18" points="83.85 220.28 84.21 220.48 79.69 223.08 79.33 222.87 83.85 220.28"/><polygon class="cls-18" points="83.38 219.81 83.74 219.61 84.1 219.81 83.74 220.02 83.38 219.81"/><polygon class="cls-18" points="83.22 219.91 83.58 220.11 79.06 222.71 78.7 222.5 83.22 219.91"/><path class="cls-81" d="M80.1,216.33a4.28,4.28,0,0,1,1.67.55,4.25,4.25,0,0,0,.59.43,2.49,2.49,0,0,0,.28.15,1.05,1.05,0,0,1,.37.25,1,1,0,0,1,.17.52,2.22,2.22,0,0,1,0,.68c-.08.34-.43.31-.61.08a.75.75,0,0,1-.16-.41.88.88,0,0,0-.4-.72l-2.24-1.39A.28.28,0,0,1,80.1,216.33Z"/><path class="cls-1" d="M70.41,190.52l-.34,0c-.44,0-1.1.06-1.18.3a1.3,1.3,0,0,0,0,.72c.1.3.38.35.81.33a1,1,0,0,0,1-.86A.41.41,0,0,0,70.41,190.52Z"/><path class="cls-1" d="M72,190.41c-.23.06-.27.29-.23.49a1,1,0,0,0,1,.77c.43,0,.7-.09.77-.4a1.19,1.19,0,0,0,0-.71C73.42,190.23,72.22,190.35,72,190.41Z"/><path class="cls-5" d="M73.79,190.46c-.26-.6-1.83-.3-1.84-.3h0a.59.59,0,0,0-.41.65h-.62a.6.6,0,0,0-.46-.55s-1.6-.16-1.81.46a1.46,1.46,0,0,0,0,.87.81.81,0,0,0,.88.51h.17a1.19,1.19,0,0,0,1.18-1h.66a1.2,1.2,0,0,0,1.18.87h.07c.3,0,.87,0,1-.59A1.55,1.55,0,0,0,73.79,190.46Zm-4.06,1.39c-.43,0-.71,0-.81-.33a1.3,1.3,0,0,1,0-.72c.08-.24.74-.3,1.18-.3l.34,0a.41.41,0,0,1,.28.47A1,1,0,0,1,69.73,191.85Zm3.86-.58c-.07.31-.34.38-.77.4a1,1,0,0,1-1-.77c0-.2,0-.43.23-.49s1.4-.18,1.54.15A1.19,1.19,0,0,1,73.59,191.27Z"/><polygon class="cls-88" points="359.59 317.91 341.63 340.37 269.55 381.94 269.55 388.49 341.63 430.2 413.64 388.49 431.8 363.88 431.8 357.33 359.59 317.91"/><polygon class="cls-89" points="269.59 381.88 341.67 340.3 413.68 381.88 341.67 423.59 269.59 381.88"/><polygon class="cls-90" points="341.63 340.37 359.59 317.91 431.8 357.33 413.64 381.94 341.63 340.37"/><polygon class="cls-91" points="350.09 338.78 361.03 325.09 423.47 359.18 412.1 374.58 350.09 338.78"/><polygon class="cls-18" points="353.76 353.2 341.56 346.15 329.43 353.2 341.63 360.25 353.76 353.2"/><polygon class="cls-18" points="369.91 362.45 357.71 355.4 345.57 362.45 357.77 369.5 369.91 362.45"/><polygon class="cls-18" points="386.05 371.7 373.85 364.65 361.72 371.7 373.92 378.75 386.05 371.7"/><polygon class="cls-18" points="402.2 380.95 390 373.9 377.87 380.95 390.06 388 402.2 380.95"/><polygon class="cls-18" points="338.04 362.95 325.84 355.9 313.71 362.95 325.91 370 338.04 362.95"/><polygon class="cls-18" points="354.19 372.2 341.99 365.15 329.85 372.2 342.05 379.25 354.19 372.2"/><polygon class="cls-18" points="370.33 381.45 358.13 374.4 346 381.45 358.2 388.5 370.33 381.45"/><polygon class="cls-18" points="386.48 390.7 374.28 383.65 362.14 390.7 374.35 397.75 386.48 390.7"/><polygon class="cls-18" points="322.32 372.7 310.12 365.65 297.99 372.7 310.19 379.75 322.32 372.7"/><polygon class="cls-18" points="338.46 381.95 326.26 374.9 314.13 381.95 326.33 389 338.46 381.95"/><polygon class="cls-18" points="354.61 391.2 342.41 384.15 330.28 391.2 342.48 398.25 354.61 391.2"/><polygon class="cls-18" points="306.6 382.45 294.4 375.4 282.27 382.45 294.47 389.5 306.6 382.45"/><polygon class="cls-18" points="322.75 391.7 310.54 384.65 298.41 391.7 310.61 398.75 322.75 391.7"/><polygon class="cls-18" points="338.89 400.95 326.69 393.9 314.56 400.95 326.76 408 338.89 400.95"/><polygon class="cls-6" points="370.76 400.45 358.56 393.4 330.7 410.2 342.9 417.25 370.76 400.45"/><path class="cls-92" d="M96.82,118.31l.15-.08c.68-4.35,3.7-9.08,7.34-11.18a7.26,7.26,0,0,1,2.94-1,25.05,25.05,0,0,1,2.36-5.44,22,22,0,0,1,7.69-8.11c2.79-1.61,5.58-2,7.71-.79l3.82,2.22A5.69,5.69,0,0,1,131,96.26a4.11,4.11,0,0,1,2.68.44l3.82,2.22h0c1.35.78,2.2,2.44,2.2,4.82,0,4.54-3,10-6.91,12.64l-32.11,18.54c-1.85,1.06-3.51,1.09-4.66.29l.2.14-3.82-2.22c-1.12-.65-1.82-2-1.83-4A13.76,13.76,0,0,1,96.82,118.31Z"/><path class="cls-93" d="M121.12,94.71a22.13,22.13,0,0,0-7.69,8.11,25.05,25.05,0,0,0-2.36,5.44,7.31,7.31,0,0,0-2.94,1c-3.63,2.1-6.66,6.84-7.34,11.18l-.15.08a13.74,13.74,0,0,0-6.23,10.81c0,4,2.82,5.57,6.28,3.58l32.11-18.54c3.88-2.62,6.92-8.1,6.91-12.64,0-4.77-3.38-6.69-7.53-4.29l-.21.13c-.27-2.57-1.32-4.62-3.14-5.66C126.7,92.71,123.91,93.1,121.12,94.71Z"/><path class="cls-94" d="M156.44,72.9l.22-.11c1-6.55,5.58-13.67,11.06-16.84a11.1,11.1,0,0,1,4.42-1.52,38.12,38.12,0,0,1,3.55-8.2A33.32,33.32,0,0,1,187.27,34c4.2-2.42,8.4-3,11.61-1.18l5.76,3.35a8.46,8.46,0,0,1,3.29,3.51,6.15,6.15,0,0,1,4,.67l5.75,3.34h0c2,1.18,3.31,3.69,3.32,7.27,0,6.84-4.57,15.09-10.4,19L162.26,97.92c-2.79,1.6-5.28,1.65-7,.44a3.21,3.21,0,0,0,.3.21l-5.75-3.34c-1.7-1-2.75-3.08-2.76-6C147,83.2,151.24,75.91,156.44,72.9Z"/><path class="cls-95" d="M193,37.36a33.45,33.45,0,0,0-11.59,12.22,37.65,37.65,0,0,0-3.54,8.2,10.84,10.84,0,0,0-4.43,1.52c-5.48,3.16-10,10.29-11.05,16.83l-.23.12c-5.2,3-9.41,10.29-9.39,16.27s4.25,8.4,9.46,5.4L210.62,70C216.45,66.06,221,57.81,221,51c0-7.18-5.1-10.07-11.34-6.47-.11.06-.21.14-.31.2-.41-3.87-2-7-4.73-8.51C201.43,34.36,197.22,34.94,193,37.36Z"/><polygon class="cls-96" points="67.68 355.6 67.83 355.6 67.75 355.52 67.68 355.6"/><polygon class="cls-96" points="67.83 355.6 67.93 355.6 67.93 355.34 67.75 355.52 67.83 355.6"/><polygon class="cls-96" points="67.93 355.7 67.93 355.6 67.83 355.6 67.93 355.7"/><g class="cls-3"><polygon class="cls-33" points="107.33 326.7 107.3 335.47 65.47 359.78 65.39 350.86 107.33 326.7"/><path class="cls-79" d="M105.68,325.71q.84.48,1.65,1L65.39,350.86l-41.93-24.2C33.85,320.12,48.73,316,65.3,316,81.05,316,95.33,319.73,105.68,325.71Z"/><polygon class="cls-97" points="65.39 350.86 65.37 359.63 8.52 359.64 8.54 350.86 65.39 350.86"/><path class="cls-14" d="M65.39,350.86H8.54c0-.59-.09-1.19-.09-1.79,0-8.65,5.65-16.52,15-22.41Z"/><g class="cls-3"><g class="cls-98"><g class="cls-3"><path class="cls-99" d="M8.54,350.86l0,8.78a17.93,17.93,0,0,1-.09-1.8l0-8.77c0,.6,0,1.2.09,1.79"/></g></g></g><path class="cls-6" d="M65.39,350.86,27,373.38c-.58-.31-1.15-.63-1.71-.95-9.67-5.58-15.92-13.16-16.75-21.57Z"/><polygon class="cls-100" points="65.39 350.86 65.37 359.63 26.98 382.15 27 373.38 65.39 350.86"/><g class="cls-3"><g class="cls-101"><path class="cls-5" d="M27,373.38l0,8.77c-.59-.31-1.16-.63-1.72-.95-9.67-5.58-15.92-13.15-16.74-21.56l0-8.78c.83,8.41,7.08,16,16.75,21.57.56.32,1.13.64,1.71.95"/></g></g></g><g class="cls-3"><g class="cls-3"><g class="cls-102"><path class="cls-8" d="M104.22,373.19l0,8.77c-10.14,5.45-23.72,8.77-38.65,8.77l0-8.77c14.94,0,28.51-3.33,38.65-8.77"/></g></g><path class="cls-9" d="M104.22,373.19C94.08,378.63,80.51,382,65.57,382l-.17-31.1Z"/><polygon class="cls-103" points="65.57 381.96 65.55 390.73 65.37 359.63 65.4 350.86 65.57 381.96"/><path class="cls-12" d="M65.4,350.86l.17,31.1c-14.9,0-28.48-3.31-38.67-8.73Z"/><g class="cls-3"><g class="cls-104"><path class="cls-11" d="M65.57,382l0,8.77c-14.9,0-28.48-3.31-38.67-8.72l0-8.78C37.09,378.65,50.67,382,65.57,382"/></g></g></g><g class="cls-3"><path class="cls-105" d="M108.86,311.05c9.38,5.89,15.14,13.75,15.19,22.37,0,.61,0,1.2-.07,1.8-.78,8.87-7.6,16.81-18.13,22.47L67.1,335.32l.18-.1Z"/><g class="cls-3"><g class="cls-106"><path class="cls-107" d="M124.05,333.48l0,8.78c0,.55,0,1.1-.07,1.64-.77,8.87-7.59,16.82-18.13,22.47l0-8.77c10.53-5.66,17.35-13.6,18.13-22.47,0-.55.07-1.09.07-1.65"/></g></g><polygon class="cls-108" points="105.85 357.69 105.82 366.46 67.08 344.09 67.1 335.32 105.85 357.69"/></g><path class="cls-18" d="M215.27,199.72h0l.58.16h0c.36.09.73.17,1.1.24l.25,0,.12,0h0l.54.08.17,0,.44.07h0l.44,0,.2,0h0l.85.08h0l.77,0h1.64c.42,0,.83,0,1.24-.07h.21l.36,0h.1l1-.11.62-.11,1-.19.71-.17.31-.08.16,0,.05,0,.17,0h0l.76-.22,0,0c.32-.1.62-.22.93-.34.48-.19,1-.39,1.41-.61h0l.27-.14.07,0,.07,0h0l.07,0h0l-.07,0,.07,0,0,0,.07,0,.21-.12.2-.12,0,0,0,0h.05l.08-.06.13-.08.12-.07h0l.27-.19.21-.14h0a8.53,8.53,0,0,0,2.57-2.82l0,0h0s0,0,0-.07h0l0-.07h0a1,1,0,0,1,0-.1,3.82,3.82,0,0,0,.21-.46h0v0l0-.1v0a.14.14,0,0,0,0-.06v0c0-.11.07-.22.1-.33s0,0,0-.06a1.33,1.33,0,0,0,0-.19l0-.13v0a.09.09,0,0,1,0-.05v0c0-.12,0-.24.05-.36s0-.06,0-.09a1.94,1.94,0,0,0,0-.24V192a4.47,4.47,0,0,0,0-.52v-.15h0a0,0,0,0,0,0,0c0-.1,0-.2,0-.3a.36.36,0,0,1,0-.11l0-.15,0-.17,0,0a.45.45,0,0,0,0-.11c0-.1-.06-.2-.1-.3s0-.12,0-.18l0-.06a.19.19,0,0,0,0-.07l0,0-.13-.26a.61.61,0,0,0-.07-.14,2,2,0,0,0-.1-.21.05.05,0,0,0,0,0l0-.05,0,0c-.08-.14-.17-.27-.26-.41s-.1-.15-.16-.23l0,0h0l0,0-.18-.22-.15-.18h0c-.08-.09-.14-.18-.22-.26h0c-.14-.15-.3-.3-.46-.44h0a11,11,0,0,0-2-1.51l-2.3,1.34h0c4,2.39,4.48,6.06,1.29,8.72h0L231,196h0l-.12.08-.08.06-.13.09h0l-.09.06-.08.06h0l0,0-.08.05-.11.06-.21.13-.22.12a.2.2,0,0,1-.08,0l-.13.08h0l-.22.11-.23.12-.23.1c-4.6,2.07-11.24,1.9-15.54-.51h0l-2.31,1.34c.24.14.5.26.75.38l0,0c.27.14.56.26.84.38l.41.18.49.19.68.22.67.22Z"/><path class="cls-9" d="M232.33,185.6c-5.93-3.42-15.51-3.42-21.4,0a10.17,10.17,0,0,0-3.31,2.9l-.2.33c-.09.15-.19.3-.27.46l0,.07c-.05.1-.09.21-.13.31l-.06.13c0,.1-.09.2-.12.3a2.79,2.79,0,0,0-.1.39l-.09.36s0,.06,0,.08,0,.28,0,.41a3.27,3.27,0,0,0,0,.44h0s0,.06,0,.09h0c0,.09,0,.19,0,.28s0,.25,0,.38a2.23,2.23,0,0,0,0,.23,4.07,4.07,0,0,0,.13.5.09.09,0,0,0,0,0,1.87,1.87,0,0,0,.07.22h0a5.16,5.16,0,0,0,.31.73,6.36,6.36,0,0,0,.57.92l.22.27h0a8.39,8.39,0,0,0,.56.63h0l.3.3c.21.2.44.39.68.58l.33.26c.35.25.72.5,1.12.74l.06,0h0l.12.06h0l2.31-1.34h0l-.11-.06c-4.64-2.68-4.67-7-.05-9.71s12.13-2.68,16.77,0l.11.07h0l2.3-1.34C232.55,185.73,232.48,185.69,232.33,185.6Z"/><path class="cls-5" d="M180.93,176.11c0,.11,0,.23,0,.34s0,.33,0,.5,0,.3,0,.45a.13.13,0,0,0,0,.06c0,.11,0,.22,0,.33h0c0,.16.08.31.12.47v0c0,.13,0,.26.09.38s.13.31.2.46.09.25.15.37h0c.09.16.19.32.29.48s.13.22.2.32.27.34.4.5l0-.05c.09.11.17.22.27.33s.32.32.49.48a3.63,3.63,0,0,0,.28.27c.2.18.43.35.65.52l.25.2h0c.33.23.68.46,1.05.67.22.13.45.24.68.36-.23-.12-.46-.23-.68-.36a12.38,12.38,0,0,0,1.14.6h0l.44.19c.26.11.52.23.78.33h0l.56.19c.24.09.48.18.73.25l.6.17.74.19h0c.23.06.46.1.68.14h-.06c.26,0,.51.11.77.15l.68.1h0l.77.11.71.06h0l.76.07h0l.71,0h0l.75,0,.7,0c.25,0,.5,0,.75,0l.68-.05.75-.06.68-.09.73-.11.68-.13h0l.71-.14.65-.17.69-.19.63-.21h0c.22-.07.45-.14.66-.22h0l.6-.25h0c.21-.09.43-.17.63-.27l.56-.28c.18-.09.36-.18.53-.28l-2.31-1.34h0c-3.76,2.12-9.36,2.5-13.79,1.14a13.8,13.8,0,0,1-2.85-1.21c-4.64-2.69-4.67-7,0-9.72s12.13-2.68,16.77,0l.28.16,2.31-1.33-.28-.18c-5.92-3.42-15.51-3.42-21.4,0a9.43,9.43,0,0,0-3.79,3.7l0,.07-.16.4c-.05.12-.11.23-.15.35s0,.19-.07.29A4.56,4.56,0,0,0,180.93,176.11Z"/><path class="cls-18" d="M204.63,172.29c3.4,2.1,4.11,5.13,2.1,7.62h0l0,0h0l0,0-.07.08h0l-.08.09,0,0,0,0h0l0,0-.07.08,0,0h0l-.1.1s0,0-.05.05l-.1.09-.06,0-.1.09-.07.06h0l-.06.05,0,0,0,0h0l0,0h0l0,0h0l0,0h0l-.08.06-.05,0-.05,0-.09.06-.09.07-.1.07h0l-.09.06-.12.08-.05,0,0,0,0,0-.09.05-.07,0h0l-.08,0-.12.08-.14.07h0l2.31,1.34c-.17.1-.35.19-.53.28h0c.18-.09.36-.18.53-.28h0l.14-.07.13-.08,0,0L207,183l0,0,.1-.07,0,0,.05,0,0,0,0,0h0l.07-.05.06,0h0l0,0,0,0,.06,0,0,0h0l0,0,.06,0,.06,0,.06,0,.05,0,.07,0,0,0,.07-.06,0,0,.07-.05.05,0,0,0,0,0h0l0,0,.08-.07,0,0,.07-.06h0l.05,0,0,0h0l0,0a8.23,8.23,0,0,0,1.7-2s0,0,0,0a6.89,6.89,0,0,0,.34-.66l0,0v0h0v0s0,0,0,0h0a1,1,0,0,0,.06-.16c.06-.16.12-.32.17-.47a1.55,1.55,0,0,1,0-.21,1.43,1.43,0,0,0,0-.22,2.8,2.8,0,0,0,.06-.28c0-.05,0-.09,0-.14v-.08a.41.41,0,0,0,0-.11,2.29,2.29,0,0,0,0-.25V177a.71.71,0,0,0,0-.14,3.11,3.11,0,0,0,0-.43.37.37,0,0,0,0-.11v0h0l0-.11a.44.44,0,0,0,0-.1v0a.31.31,0,0,1,0-.08c0-.08,0-.16-.05-.23a2.17,2.17,0,0,0-.07-.24c0-.11-.07-.21-.11-.32s-.08-.23-.13-.34a.43.43,0,0,0,0-.07h0a6.36,6.36,0,0,0-.3-.58l-.09-.13c-.1-.17-.22-.34-.34-.51a2.11,2.11,0,0,0-.19-.23,3.47,3.47,0,0,0-.25-.29l-.08-.1c-.17-.19-.36-.37-.55-.55l-.07-.07c-.22-.19-.45-.39-.7-.58l0,0c-.33-.24-.67-.48-1-.71h0l-2.31,1.33Z"/><polygon class="cls-109" points="72.15 156.35 72.11 141.54 71.98 97.11 65.93 94.52 0 132.59 0.13 177.02 6.18 179.61 60.15 148.45 66.1 153.76 72.15 156.35"/><polygon class="cls-110" points="62.06 147.34 72.15 156.35 72.11 141.54 71.98 97.11 6.05 135.18 6.18 179.61 62.06 147.34"/><path class="cls-18" d="M63.4,112.75,13.52,141.54a1.29,1.29,0,0,0-.64,1.12h0a1.29,1.29,0,0,0,1.93,1.11L64.68,115a1.27,1.27,0,0,0,.64-1.11h0A1.28,1.28,0,0,0,63.4,112.75Z"/><path class="cls-18" d="M63.4,122.85l-49.88,28.8a1.27,1.27,0,0,0-.64,1.11h0a1.29,1.29,0,0,0,1.93,1.11l49.87-28.8a1.27,1.27,0,0,0,.64-1.11h0A1.28,1.28,0,0,0,63.4,122.85Z"/><path class="cls-18" d="M63.4,133l-49.88,28.8a1.29,1.29,0,0,0-.64,1.12h0a1.28,1.28,0,0,0,1.93,1.1l49.87-28.79a1.29,1.29,0,0,0,.64-1.12h0A1.28,1.28,0,0,0,63.4,133Z"/><polygon class="cls-111" points="310.24 61.82 310.28 47.02 310.4 2.59 316.45 0 382.39 38.07 382.26 82.5 376.21 85.09 322.24 53.92 316.28 59.23 310.24 61.82"/><polygon class="cls-112" points="320.33 52.82 310.24 61.82 310.28 47.02 310.4 2.59 376.34 40.66 376.21 85.09 320.33 52.82"/><path class="cls-18" d="M319,18.22,368.87,47a1.31,1.31,0,0,1,.64,1.12h0a1.28,1.28,0,0,1-1.93,1.1L317.71,20.45a1.3,1.3,0,0,1-.65-1.12h0A1.29,1.29,0,0,1,319,18.22Z"/><path class="cls-18" d="M319,28.33l49.88,28.79a1.31,1.31,0,0,1,.64,1.12h0a1.29,1.29,0,0,1-1.93,1.11l-49.87-28.8a1.28,1.28,0,0,1-.65-1.11h0A1.29,1.29,0,0,1,319,28.33Z"/><path class="cls-18" d="M319,38.43l49.88,28.8a1.29,1.29,0,0,1,.64,1.11h0a1.29,1.29,0,0,1-1.93,1.11L317.71,40.66a1.3,1.3,0,0,1-.65-1.12h0A1.29,1.29,0,0,1,319,38.43Z"/></g></g></g></svg>